# Blender 3.6.0
# www.blender.org
o ornament_doors_06
v -6.177774 -3.286250 5.765715
v -6.177774 -3.286250 5.697972
v -6.177774 -3.180562 5.442819
v -6.177774 -2.971622 5.233879
v -6.177774 -2.716468 5.128191
v -6.177774 -2.554992 5.765715
v -6.177774 -2.554992 5.128191
v -6.177774 -2.554992 6.403238
v -6.177774 -2.716468 6.403238
v -6.177774 -2.971622 6.297550
v -6.177774 -3.180562 6.088610
v -6.177774 -3.286250 5.833457
vn 1.0000 -0.0000 -0.0000
vt 0.500000 0.573441
vt 0.446924 0.573441
vt 0.247011 0.490634
vt 0.083307 0.326930
vt 0.000500 0.127017
vt 0.500000 0.000500
vt 0.000500 0.000500
vt 0.999500 0.000500
vt 0.999500 0.127017
vt 0.916694 0.326929
vt 0.752989 0.490634
vt 0.553076 0.573441
s 0
f 1/1/1 2/2/1 3/3/1
f 3/3/1 4/4/1 5/5/1
f 1/1/1 3/3/1 5/5/1
f 6/6/1 1/1/1 5/5/1
f 7/7/1 6/6/1 5/5/1
f 8/8/1 9/9/1 10/10/1
f 10/10/1 11/11/1 12/12/1
f 8/8/1 10/10/1 12/12/1
f 8/8/1 12/12/1 1/1/1
f 6/6/1 8/8/1 1/1/1
