# Blender 3.6.0
# www.blender.org
o ornament_doors_10.002
v 6.199560 0.000000 9.730616
v 6.199560 -0.870841 9.730616
v 6.199562 -0.870841 10.469960
v 6.199562 0.000000 10.469960
v 6.199560 -1.741682 8.991271
v 6.199560 -1.741682 9.730616
v 6.199560 -0.870841 8.991271
v 6.199560 0.000000 8.991271
v 6.199562 -1.741682 10.469960
vn -1.0000 -0.0000 -0.0000
vt 0.256885 0.002000
vt 0.256885 0.302218
vt 0.002000 0.302218
vt 0.002000 0.002000
vt 0.511771 0.602436
vt 0.256885 0.602436
vt 0.511771 0.302218
vt 0.511771 0.002000
vt 0.002000 0.602436
s 0
f 1/1/1 2/2/1 3/3/1
f 3/3/1 4/4/1 1/1/1
f 5/5/1 6/6/1 2/2/1
f 2/2/1 7/7/1 5/5/1
f 8/8/1 7/7/1 2/2/1
f 2/2/1 1/1/1 8/8/1
f 9/9/1 3/3/1 2/2/1
f 2/2/1 6/6/1 9/9/1
