# Blender 3.6.0
# www.blender.org
o lamps_1stfloor_07.002
v -4.628188 -4.032697 9.844337
v -4.589305 -4.270751 9.851192
v -4.712938 -4.270751 9.674627
v -4.719794 -4.032697 9.713510
v -4.759487 -4.032697 9.938619
v -4.766342 -4.270751 9.977501
v -4.589777 -4.270751 9.853868
v -4.628659 -4.032697 9.847013
v -4.722471 -4.032697 9.713036
v -4.715615 -4.270751 9.674152
v -4.892180 -4.270751 9.797785
v -4.853298 -4.032697 9.804642
v -4.853770 -4.032697 9.807320
v -4.892653 -4.270751 9.800464
v -4.769020 -4.270751 9.977030
v -4.762164 -4.032697 9.938148
vn 0.8136 0.1165 -0.5697
vn 0.8136 0.1162 -0.5698
vn 0.5697 0.1165 0.8136
vn 0.5697 0.1161 0.8136
vn 0.5697 0.1162 0.8136
vn -0.5697 0.1162 -0.8136
vn -0.5697 0.1165 -0.8136
vn -0.5697 0.1161 -0.8136
vn -0.8136 0.1162 0.5697
vn -0.8136 0.1165 0.5697
vt 0.117658 0.999500
vt 0.000500 0.000500
vt 0.905045 0.000500
vt 0.787887 0.999500
s 0
f 1/1/1 2/2/1 3/3/1
f 3/3/1 4/4/1 1/1/2
f 5/1/3 6/2/3 7/3/3
f 7/3/3 8/4/4 5/1/5
f 9/1/6 10/2/7 11/3/7
f 11/3/7 12/4/8 9/1/7
f 13/1/9 14/2/10 15/3/10
f 15/3/10 16/4/10 13/1/10
