# Blender 3.6.0
# www.blender.org
o lamps_1stfloor_06.002
v 4.909569 -4.032697 -10.028158
v 4.949052 -4.270751 -10.028159
v 4.796637 -4.270751 -10.180573
v 4.796637 -4.032697 -10.141091
v 4.796638 -4.032697 -9.912509
v 4.796638 -4.270751 -9.873027
v 4.949052 -4.270751 -10.025441
v 4.909570 -4.032697 -10.025442
v 4.793919 -4.032697 -10.141093
v 4.793919 -4.270751 -10.180575
v 4.641504 -4.270751 -10.028161
v 4.680986 -4.032697 -10.028160
v 4.680987 -4.032697 -10.025441
v 4.641505 -4.270751 -10.025441
v 4.793919 -4.270751 -9.873026
v 4.793920 -4.032697 -9.912509
vn 0.7023 0.1165 -0.7023
vn 0.7023 0.1162 -0.7024
vn 0.7023 0.1165 0.7023
vn 0.7024 0.1161 0.7023
vn 0.7024 0.1162 0.7023
vn -0.7024 0.1162 -0.7023
vn -0.7023 0.1165 -0.7023
vn -0.7024 0.1161 -0.7023
vn -0.7023 0.1162 0.7024
vn -0.7023 0.1165 0.7023
vt 0.117658 0.999500
vt 0.000500 0.000500
vt 0.905045 0.000500
vt 0.787887 0.999500
s 0
f 1/1/1 2/2/1 3/3/1
f 3/3/1 4/4/1 1/1/2
f 5/1/3 6/2/3 7/3/3
f 7/3/3 8/4/4 5/1/5
f 9/1/6 10/2/7 11/3/7
f 11/3/7 12/4/8 9/1/7
f 13/1/9 14/2/10 15/3/10
f 15/3/10 16/4/10 13/1/10
