# Blender 3.6.0
# www.blender.org
o lamps_1stfloor_00.002
v 0.018370 -3.773245 13.678061
v 0.046289 -4.011299 13.705980
v 0.046289 -4.011299 13.490434
v 0.018370 -3.773245 13.518352
v -0.143261 -3.773245 13.679983
v -0.171179 -4.011299 13.707902
v 0.044368 -4.011299 13.707902
v 0.016450 -3.773245 13.679983
v 0.016450 -3.773245 13.516428
v 0.044368 -4.011299 13.488509
v -0.171179 -4.011299 13.488509
v -0.143261 -3.773245 13.516428
v -0.145183 -3.773245 13.518352
v -0.173102 -4.011299 13.490434
v -0.173102 -4.011299 13.705980
v -0.145183 -3.773245 13.678061
vn 0.9932 0.1165 -0.0000
vn 0.9932 0.1162 -0.0001
vn -0.0000 0.1165 0.9932
vn -0.0000 0.1161 0.9932
vn 0.0001 0.1162 0.9932
vn -0.0001 0.1162 -0.9932
vn -0.0000 0.1165 -0.9932
vn -0.0000 0.1161 -0.9932
vn -0.9932 0.1162 0.0001
vn -0.9932 0.1165 -0.0000
vt 0.117658 0.999500
vt 0.000500 0.000500
vt 0.905045 0.000500
vt 0.787887 0.999500
s 0
f 1/1/1 2/2/1 3/3/1
f 3/3/1 4/4/1 1/1/2
f 5/1/3 6/2/3 7/3/3
f 7/3/3 8/4/4 5/1/5
f 9/1/6 10/2/7 11/3/7
f 11/3/7 12/4/8 9/1/7
f 13/1/9 14/2/10 15/3/10
f 15/3/10 16/4/10 13/1/10
