# Blender 3.6.0
# www.blender.org
o stonewalls_2ndfloor_01.002
v -6.049542 -6.389119 -3.070219
v -6.049542 -9.105448 -3.070219
v -6.049541 -9.123132 -5.326177
v -6.049541 -6.367220 -5.326177
v -6.049559 -9.091868 11.031792
v -6.049547 -9.099211 10.540556
v -6.049547 -6.305988 10.546569
v -6.049553 -6.305665 11.031789
v -6.049545 -5.318487 1.068344
v -6.049544 -6.310555 1.066075
v -6.049543 -6.389119 -1.432415
v -6.049543 -5.318487 -1.432415
v -6.049542 -10.499998 -3.070219
v -6.049543 -9.105448 -1.432415
v -6.049543 -10.499998 -1.432415
v -6.049541 -10.499997 -5.326177
v -6.049552 -10.499999 11.031789
v -6.049547 -10.499998 10.540556
v -6.049544 -9.060834 1.066075
v -6.049544 -10.499998 1.068344
v -6.049544 -10.499998 1.068344
v -6.049544 -9.060834 1.066075
v -6.049544 -9.060834 2.736837
v -6.049544 -10.499998 2.733902
v -6.049546 -5.318487 4.974551
v -6.049545 -6.308459 4.979420
v -6.049544 -6.310555 2.736498
v -6.049545 -5.318487 2.733902
v -6.049544 -8.582919 2.736498
v -6.049545 -8.582919 4.979420
v -6.049545 -9.111517 4.978433
v -6.049545 -10.499998 4.974975
v -6.049546 -10.499998 6.665701
v -6.049546 -9.118622 6.673593
v -6.049547 -5.318487 8.823660
v -6.049547 -5.366129 8.828793
v -6.049546 -5.366334 6.674320
v -6.049546 -5.318487 6.673593
v -6.049543 -5.318487 -3.070219
v -6.049542 -5.318487 -5.326177
v -6.049541 -10.499997 -6.997210
v -6.049541 -9.089142 -6.997210
v -6.049541 -9.123132 -5.326177
v -6.049541 -10.499997 -5.326177
v -6.049539 -7.744085 -9.287247
v -6.049539 -6.328770 -9.287247
v -6.049541 -6.351000 -6.997210
v -6.049539 -10.499997 -9.287247
v -6.049541 -5.318487 -6.997210
v -6.049539 -5.318487 -9.287247
v -6.049539 -10.499998 -10.807630
v -6.049539 -7.713159 -10.807630
v -6.049538 -7.713526 -11.344851
v -6.049537 -6.305775 -11.344853
v -6.049539 -6.314012 -10.807630
v -6.049537 -10.499998 -11.344851
v -6.049546 -8.582919 6.675533
v -6.049546 -6.306955 6.675533
v -6.049547 -6.306407 8.837349
v -6.049547 -8.582919 8.837349
v -6.049547 -9.108590 8.823661
v -6.049547 -10.499998 8.823661
v -6.049548 -5.318487 10.540554
v -6.049547 -5.365972 10.542809
v -6.049547 -5.366129 8.828793
v -6.049547 -5.318487 8.823660
v -6.049547 -10.499998 8.823661
v -6.049547 -9.108590 8.823661
v -6.049552 -5.318487 11.031789
v -6.049550 -5.363811 11.031789
v -6.049541 -6.367220 -5.326177
v -6.049542 -5.318487 -5.326177
v -6.042008 -7.713507 -11.352382
v -5.553221 -7.711939 -11.352355
v -5.553221 -6.305988 -11.352355
v -6.042007 -6.305665 -11.352382
v 6.080765 -10.499999 -11.352390
v 6.081054 -8.970804 -11.352390
v 5.558261 -9.060834 -11.352350
v 5.555521 -10.499999 -11.352350
v 3.862065 -9.060834 -11.352351
v 3.864346 -10.499999 -11.352351
v 2.807910 -8.108751 -11.352351
v 2.808202 -8.390157 -11.352351
v 3.862065 -9.060834 -11.352351
v 3.862329 -7.446737 -11.352351
v -3.831119 -5.325973 -11.352355
v -3.835444 -5.366129 -11.352354
v -2.890703 -5.389465 -11.352354
v 2.809302 -5.530262 -11.352351
v 3.863338 -5.556298 -11.352351
v 3.864345 -5.318485 -11.352351
v -3.822783 -5.318487 -11.352355
v -2.886077 -10.500000 -11.352354
v -2.886358 -9.102730 -11.352354
v -3.830312 -9.108590 -11.352354
v -3.830312 -10.500000 -11.352354
v -6.042042 -5.319199 -11.352382
v -5.549462 -5.365972 -11.352355
v -3.835444 -5.366129 -11.352354
v -3.831119 -5.325973 -11.352355
v -5.547207 -10.500000 -11.352355
v -3.830312 -10.500000 -11.352354
v -3.830312 -9.108590 -11.352354
v -5.547207 -9.099211 -11.352355
v -3.844001 -7.712100 -11.352354
v -6.046997 -10.492911 -11.352382
v 3.862330 -6.310555 -11.352351
v 2.807259 -6.309988 -11.352351
v 2.807259 -7.483068 -11.352351
v -3.844000 -6.306408 -11.352354
v -2.898333 -6.306917 -11.352354
v 6.081097 -5.318485 -11.352390
v 5.558343 -5.318485 -11.352350
v 5.558302 -5.550931 -11.352350
v 6.081361 -5.368331 -11.352427
v 6.081121 -6.328909 -11.352390
v 5.558263 -6.310555 -11.352350
v 5.558263 -7.492188 -11.352350
v 6.081131 -7.524777 -11.352390
v 3.862329 -7.446737 -11.352351
v 3.862330 -6.310555 -11.352351
v 3.863338 -5.556298 -11.352351
v 3.864345 -5.318485 -11.352351
v 6.088724 -5.210177 10.509750
v 6.088464 -6.314012 10.509431
v 6.088464 -6.305778 11.031476
v 6.088722 -5.210177 11.031796
v 6.088467 -6.389119 2.673033
v 6.088467 -9.105448 2.673033
v 6.088465 -9.107325 4.928992
v 6.088465 -6.367220 4.928992
v 6.088642 -6.328747 -11.344873
v 6.088642 -7.525103 -11.344861
v 6.088471 -7.517414 -10.942006
v 6.088470 -6.305988 -10.943752
v 6.088469 -5.318485 -1.451727
v 6.088467 -6.310555 -1.448287
v 6.088467 -6.389119 1.035232
v 6.088466 -5.318485 1.035232
v 6.088467 -10.499998 2.673033
v 6.088467 -9.105448 2.673033
v 6.088466 -9.105448 1.035232
v 6.088466 -10.499998 1.035232
v 6.088467 -10.499998 2.673033
v 6.088465 -10.499998 4.928992
v 6.088467 -9.060834 -1.448287
v 6.088467 -10.499998 -1.509274
v 6.088468 -9.060834 -3.120417
v 6.088468 -10.499998 -3.076592
v 6.088467 -5.318485 -5.374369
v 6.088468 -6.308459 -5.375744
v 6.088467 -6.310555 -3.122397
v 6.088467 -5.318485 -3.120417
v 6.088468 -8.582919 -3.122397
v 6.088468 -7.681952 -3.122397
v 6.088469 -7.681121 -5.375744
v 6.088469 -8.582919 -5.375744
v 6.088469 -9.111518 -5.374369
v 6.088468 -10.499999 -5.349434
v 6.088467 -10.499999 -6.980520
v 6.088468 -10.499999 -5.349434
v 6.088469 -9.111518 -5.374369
v 6.088467 -9.118622 -6.991433
v 6.088470 -5.318485 -9.220843
v 6.088471 -5.366129 -9.225977
v 6.088469 -5.366334 -6.991705
v 6.088467 -5.318485 -6.991433
v 6.088467 -5.318485 2.673033
v 6.088465 -5.318485 4.928992
v 6.088465 -10.499998 6.600025
v 6.088466 -9.104948 6.600025
v 6.088465 -9.098125 8.753142
v 6.088465 -6.328770 8.753142
v 6.088466 -6.351000 6.600025
v 6.088465 -10.499998 8.753142
v 6.088466 -5.318485 6.600025
v 6.088465 -5.318485 8.753143
v 6.088465 -10.499998 10.509431
v 6.088465 -9.095838 10.509431
v 6.087339 -9.076572 11.031640
v 6.088469 -8.582919 -6.992161
v 6.088469 -7.680524 -6.992161
v 6.088471 -7.680308 -9.234533
v 6.088470 -8.582919 -9.234533
v 6.088470 -9.108591 -9.220845
v 6.088470 -10.499999 -9.220845
v 6.088469 -5.318485 -10.930209
v 6.088469 -5.326006 -10.938096
v 6.088470 -5.365972 -10.939994
v 6.088470 -10.499999 -10.930210
v 6.088470 -9.099211 -10.937739
v 6.088470 -10.492470 -10.937739
v 6.088613 -5.326015 -11.344866
v 6.088470 -5.365851 -11.344899
v 6.088471 -6.306407 -9.234533
v 6.088469 -6.306954 -6.992161
v 6.088469 -8.582919 -5.375744
v 6.088469 -7.681121 -5.375744
v -5.568667 -5.318487 11.039321
v -5.568667 -5.364815 11.039321
v -6.042021 -5.363794 11.039318
v -6.042024 -5.318487 11.039318
v 3.859004 -6.389120 11.039323
v 3.859004 -9.105448 11.039323
v 0.833885 -8.169056 11.039323
v 0.833885 -6.367220 11.039323
v 6.081193 -5.210177 11.039323
v 6.078757 -6.311792 11.039323
v 5.614481 -6.389120 11.039323
v 5.614481 -5.210178 11.039323
v 3.859004 -9.590231 11.039323
v 0.833885 -9.575830 11.039323
v 6.079808 -9.076758 11.039169
v 5.614481 -9.105448 11.039323
v 6.085114 -10.493322 11.039166
v 5.614481 -9.590231 11.039323
v 3.859004 -5.210178 11.039323
v 0.833885 -5.210177 11.039323
v 0.346509 -10.500000 11.039323
v 0.346509 -9.560925 11.039323
v 0.833885 -10.500000 11.039323
v -3.789680 -9.112445 11.039321
v -3.789681 -6.328771 11.039321
v -1.115620 -6.351000 11.039323
v -1.115620 -8.135066 11.039323
v -1.115620 -10.500000 11.039323
v -3.789680 -10.500000 11.039321
v -3.789680 -9.595893 11.039321
v -1.115620 -9.548322 11.039323
v -1.115620 -5.210177 11.039323
v -3.789680 -5.210178 11.039321
v -5.568667 -10.500000 11.039321
v -5.568667 -9.570864 11.039321
v -6.042024 -10.499999 11.039318
v -6.046092 -10.493312 11.039318
v -0.628244 -10.500000 11.039323
v -0.628244 -9.547171 11.039323
v -0.140867 -9.546020 11.039323
v -0.140867 -10.500000 11.039323
v 3.859004 -10.500000 11.039323
v -0.140867 -9.050820 11.039323
v 0.346509 -8.861659 11.039323
v -5.568667 -9.081519 11.039321
v -1.115620 -9.548322 11.039323
v -1.115620 -8.135066 11.039323
v -0.628244 -8.844665 11.039323
v -1.115620 -10.500000 11.039323
v -6.042008 -10.499998 -11.352382
v 6.088296 -10.492470 -11.344860
v 6.088476 -8.971773 -11.345202
v 6.081065 -10.499999 11.039166
v 6.088591 -10.499999 11.031635
v -6.042031 -9.091596 11.039321
v -5.568668 -6.314012 11.039321
v -6.042026 -6.305790 11.039318
v -6.049539 -5.318487 -10.807630
v -6.049537 -5.318487 -11.344851
v 6.088591 -10.499999 11.031635
v 6.087339 -9.076572 11.031640
v 6.087323 -9.076296 11.039166
v -3.822783 -5.318487 -11.352355
v 6.088464 -6.305659 11.039005
v 6.088722 -5.210177 11.039323
v 6.087323 -9.076296 11.039166
v 6.088464 -6.305659 11.039005
v 6.088722 -5.210177 11.039323
v 6.079808 -9.076758 11.039169
v 6.085114 -10.493322 11.039166
v -2.898334 -7.679536 -11.352354
v -3.844001 -7.712100 -11.352354
v -2.894602 -8.123048 -11.352354
v 2.810874 -10.500000 -11.352351
v 2.808905 -9.067373 -11.352351
v 3.864346 -10.499999 -11.352351
v -2.892205 -8.407753 -11.352354
vn 1.0000 -0.0000 -0.0000
vn -0.0001 -0.0000 1.0000
vn 0.0001 -0.0000 1.0000
vn -0.0000 -0.0000 1.0000
vn -0.0000 0.0001 1.0000
vn -0.0000 -0.0015 1.0000
vn -1.0000 -0.0001 -0.0000
vn -1.0000 0.0002 -0.0000
vn -1.0000 -0.0000 -0.0000
vn -1.0000 -0.0000 0.0002
vn -1.0000 -0.0000 0.0001
vn -1.0000 0.0001 -0.0000
vn -1.0000 0.0029 -0.0000
vn -1.0000 0.0015 -0.0000
vn -1.0000 -0.0000 -0.0002
vn -0.0000 -0.0000 -1.0000
vn 0.0001 -0.0000 -1.0000
vn -0.0000 0.0001 -1.0000
vn -1.0000 -0.0000 -0.0001
vn -0.0001 0.0001 -1.0000
vn -0.8725 -0.0000 -0.4886
vn -0.0000 -0.0001 1.0000
vn 0.0035 0.0072 1.0000
vn -0.0000 0.0003 -1.0000
vt 12.161161 0.380461
vt 12.161161 1.450166
vt 11.272754 1.457130
vt 11.272754 0.371838
vt 17.714611 1.444820
vt 17.521158 1.447712
vt 17.523529 0.347726
vt 17.714609 0.347598
vt 13.790953 -0.041160
vt 13.790058 0.349523
vt 12.806137 0.380461
vt 12.806137 -0.041160
vt 12.161161 1.999348
vt 12.806137 1.450166
vt 12.806137 1.999348
vt 11.272754 1.999348
vt 17.714609 1.999350
vt 17.521158 1.999350
vt 13.790058 1.432598
vt 13.790951 1.999348
vt 14.448011 1.432598
vt 14.446857 1.999348
vt 15.329235 -0.041158
vt 15.331152 0.348698
vt 14.447880 0.349523
vt 14.446857 -0.041160
vt 14.447880 1.244393
vt 15.331152 1.244394
vt 15.330763 1.452558
vt 15.329403 1.999350
vt 15.995220 1.999350
vt 15.998329 1.455356
vt 16.845037 -0.041158
vt 16.847057 -0.022396
vt 15.998615 -0.022315
vt 15.998329 -0.041158
vt 12.161161 -0.041160
vt 11.272754 -0.041160
vt 10.614692 1.999348
vt 10.614692 1.443744
vt 9.712862 0.914053
vt 9.712863 0.356694
vt 10.614692 0.365449
vt 9.712862 1.999347
vt 10.614692 -0.041160
vt 9.712863 -0.041161
vt 9.114127 1.999346
vt 9.114127 0.901874
vt 8.902566 0.902019
vt 8.902564 0.347639
vt 9.114127 0.350882
vt 8.902566 1.999347
vt 15.999092 1.244394
vt 15.999092 0.348107
vt 16.850428 0.347891
vt 16.850428 1.244394
vt 16.845037 1.451405
vt 16.845037 1.999350
vt 17.521158 -0.041158
vt 17.522049 -0.022458
vt 17.714609 -0.041157
vt 17.714611 -0.023309
vt 8.896636 0.902011
vt 8.704147 0.901394
vt 8.704147 0.347723
vt 8.896634 0.347596
vt 4.122617 1.999348
vt 4.122502 1.397143
vt 4.328382 1.432597
vt 4.329461 1.999348
vt 4.996356 1.432597
vt 4.995457 1.999348
vt 5.411489 1.057662
vt 5.411373 1.168481
vt 4.996252 0.796957
vt 8.025974 -0.038213
vt 8.027678 -0.022399
vt 7.655633 -0.013209
vt 5.410939 0.042238
vt 4.995853 0.052491
vt 4.995457 -0.041161
vt 8.022692 -0.041161
vt 7.653811 1.999348
vt 7.653922 1.449095
vt 8.025657 1.451403
vt 8.025657 1.999348
vt 8.896647 -0.040880
vt 8.702667 -0.022461
vt 8.701778 1.999348
vt 8.701778 1.447709
vt 8.031047 0.901457
vt 8.898600 1.996556
vt 4.996251 0.349522
vt 5.411743 0.349298
vt 5.411745 0.811264
vt 8.031047 0.347887
vt 7.658638 0.348088
vt 4.122487 -0.041161
vt 4.328350 -0.041161
vt 4.328366 0.050377
vt 4.122383 -0.021532
vt 4.122477 0.356750
vt 4.328382 0.349522
vt 4.328382 0.814855
vt 4.122473 0.827689
vt -4.489846 -0.083815
vt -4.489722 0.350881
vt -4.695306 0.347638
vt -4.695431 -0.083815
vt -1.403704 0.380459
vt -1.403704 1.450165
vt -2.292112 1.450904
vt -2.292112 0.371836
vt 4.116555 0.356686
vt 4.116550 0.827817
vt 3.957976 0.824790
vt 3.958663 0.347723
vt 0.220651 -0.041162
vt 0.219296 0.349521
vt -0.758727 0.380460
vt -0.758727 -0.041162
vt -1.403704 1.999347
vt -0.758727 1.450165
vt -0.758730 1.999347
vt -2.292112 1.999346
vt 0.219296 1.432596
vt 0.243312 1.999347
vt 0.877789 1.432596
vt 0.860531 1.999347
vt 1.765409 -0.041162
vt 1.765950 0.348696
vt 0.878570 0.349521
vt 0.877789 -0.041162
vt 0.878570 1.244391
vt 0.878570 0.889585
vt 1.765950 0.889258
vt 1.765950 1.244391
vt 1.765409 1.452556
vt 1.755589 1.999348
vt 2.397919 1.999348
vt 2.402216 1.455354
vt 3.280172 -0.041161
vt 3.282194 -0.022398
vt 2.402325 -0.022318
vt 2.402217 -0.041161
vt -1.403704 -0.041163
vt -2.292112 -0.041163
vt -2.950174 1.999346
vt -2.950174 1.449968
vt -3.798085 1.447280
vt -3.798085 0.356693
vt -2.950174 0.365447
vt -3.798085 1.999346
vt -2.950174 -0.041163
vt -3.798085 -0.041163
vt -4.489722 1.999346
vt -4.489722 1.446380
vt -4.695370 1.438793
vt 2.402504 1.244391
vt 2.402504 0.889023
vt 3.285564 0.888938
vt 3.285564 1.244392
vt 3.280172 1.451404
vt 3.280172 1.999348
vt 3.953331 -0.041161
vt 3.956436 -0.038199
vt 3.957183 -0.022460
vt 3.953331 1.999349
vt 3.956296 1.447710
vt 3.956296 1.996384
vt 4.116567 -0.038196
vt 4.116618 -0.022508
vt 3.285564 0.347889
vt 2.402504 0.348103
vt 17.906952 -0.041157
vt 17.906952 -0.022914
vt 17.720543 -0.023316
vt 17.720541 -0.041157
vt 21.619617 0.380464
vt 21.619617 1.450169
vt 20.428310 1.081412
vt 20.428310 0.371840
vt 22.494730 -0.083810
vt 22.493769 0.350013
vt 22.310936 0.380464
vt 22.310936 -0.083809
vt 21.619617 1.641079
vt 20.428310 1.635408
vt 22.494183 1.438871
vt 22.310936 1.450169
vt 22.496271 1.996722
vt 22.310936 1.641079
vt 21.619617 -0.083810
vt 20.428310 -0.083810
vt 20.236378 1.999351
vt 20.236378 1.629538
vt 20.428310 1.999351
vt 18.607525 1.452923
vt 18.607525 0.356698
vt 19.660583 0.365452
vt 19.660583 1.068027
vt 19.660583 1.999351
vt 18.607525 1.999351
vt 18.607525 1.643308
vt 19.660583 1.624574
vt 19.660583 -0.083810
vt 18.607525 -0.083810
vt 17.906952 1.999351
vt 17.906952 1.633452
vt 17.720541 1.999350
vt 17.718939 1.996716
vt 19.852516 1.999351
vt 19.852516 1.624121
vt 20.044447 1.623668
vt 20.044447 1.999351
vt 21.619617 1.999352
vt 20.044447 1.428656
vt 20.236378 1.354164
vt 17.906952 1.440745
vt 19.852516 1.347471
vt 8.896636 1.999347
vt 4.116686 1.996383
vt 4.116751 1.397524
vt 22.494675 1.999351
vt -4.695368 1.999346
vt 17.720539 1.444713
vt 17.906952 0.350886
vt 17.720539 0.347648
vt 9.114127 -0.041161
vt 8.902564 -0.041161
vt 22.497972 1.999991
vt 22.497326 1.441648
vt 22.497143 1.438689
vt -4.698271 0.347591
vt -4.698396 -0.083815
vt -4.698333 1.438684
vt 22.496693 0.349525
vt 22.497696 -0.083810
vt -4.699467 1.438866
vt -4.698856 1.996717
vt 7.658638 0.888634
vt 7.657168 1.063291
vt 5.410320 1.999348
vt 5.411096 1.435172
vt 7.656225 1.175410
s 0
f 1/1/1 2/2/1 3/3/1
f 3/3/1 4/4/1 1/1/1
f 5/5/1 6/6/1 7/7/1
f 7/7/1 8/8/1 5/5/1
f 9/9/1 10/10/1 11/11/1
f 11/11/1 12/12/1 9/9/1
f 13/13/1 2/2/1 14/14/1
f 14/14/1 15/15/1 13/13/1
f 2/2/1 13/13/1 16/16/1
f 16/16/1 3/3/1 2/2/1
f 17/17/1 18/18/1 6/6/1
f 6/6/1 5/5/1 17/17/1
f 19/19/1 14/14/1 11/11/1
f 11/11/1 10/10/1 19/19/1
f 15/15/1 14/14/1 19/19/1
f 19/19/1 20/20/1 15/15/1
f 21/20/1 22/19/1 23/21/1
f 23/21/1 24/22/1 21/20/1
f 25/23/1 26/24/1 27/25/1
f 27/25/1 28/26/1 25/23/1
f 29/27/1 27/25/1 26/24/1
f 26/24/1 30/28/1 29/27/1
f 31/29/1 23/21/1 29/27/1
f 29/27/1 30/28/1 31/29/1
f 32/30/1 24/22/1 23/21/1
f 23/21/1 31/29/1 32/30/1
f 33/31/1 32/30/1 31/29/1
f 31/29/1 34/32/1 33/31/1
f 35/33/1 36/34/1 37/35/1
f 37/35/1 38/36/1 35/33/1
f 39/37/1 1/1/1 4/4/1
f 4/4/1 40/38/1 39/37/1
f 41/39/1 42/40/1 43/3/1
f 43/3/1 44/16/1 41/39/1
f 45/41/1 46/42/1 47/43/1
f 47/43/1 42/40/1 45/41/1
f 48/44/1 45/41/1 42/40/1
f 42/40/1 41/39/1 48/44/1
f 49/45/1 47/43/1 46/42/1
f 46/42/1 50/46/1 49/45/1
f 51/47/1 52/48/1 45/41/1
f 45/41/1 48/44/1 51/47/1
f 53/49/1 54/50/1 55/51/1
f 55/51/1 52/48/1 53/49/1
f 56/52/1 53/49/1 52/48/1
f 52/48/1 51/47/1 56/52/1
f 57/53/1 58/54/1 59/55/1
f 59/55/1 60/56/1 57/53/1
f 61/57/1 34/32/1 57/53/1
f 57/53/1 60/56/1 61/57/1
f 62/58/1 33/31/1 34/32/1
f 34/32/1 61/57/1 62/58/1
f 63/59/1 64/60/1 65/34/1
f 65/34/1 66/33/1 63/59/1
f 18/18/1 67/58/1 68/57/1
f 68/57/1 6/6/1 18/18/1
f 69/61/1 70/62/1 64/60/1
f 64/60/1 63/59/1 69/61/1
f 36/34/1 59/55/1 58/54/1
f 58/54/1 37/35/1 36/34/1
f 8/8/1 7/7/1 64/60/1
f 64/60/1 70/62/1 8/8/1
f 71/4/1 43/3/1 42/40/1
f 42/40/1 47/43/1 71/4/1
f 49/45/1 72/38/1 71/4/1
f 71/4/1 47/43/1 49/45/1
f 73/63/2 74/64/2 75/65/2
f 75/65/2 76/66/2 73/63/2
f 77/67/3 78/68/3 79/69/3
f 79/69/3 80/70/3 77/67/3
f 80/70/4 79/69/4 81/71/4
f 81/71/4 82/72/4 80/70/4
f 83/73/4 84/74/4 85/71/4
f 85/71/4 86/75/4 83/73/4
f 87/76/4 88/77/4 89/78/4
f 87/76/4 89/78/4 90/79/4
f 87/76/5 90/79/5 91/80/5
f 87/76/4 91/80/4 92/81/4
s 1
f 93/82/6 87/76/4 92/81/4
s 0
f 94/83/4 95/84/4 96/85/4
f 96/85/4 97/86/4 94/83/4
s 1
f 98/87/5 99/88/5 100/77/5
s 0
f 100/77/4 101/76/4 98/87/4
f 102/89/4 103/86/4 104/85/4
f 104/85/4 105/90/4 102/89/4
f 104/85/4 106/91/4 74/64/4
f 74/64/4 105/90/4 104/85/4
f 107/92/2 105/90/2 74/64/2
f 74/64/2 73/63/2 107/92/2
f 86/75/4 108/93/4 109/94/4
f 109/94/4 110/95/4 86/75/4
f 111/96/4 112/97/4 89/78/4
f 89/78/4 88/77/4 111/96/4
s 1
f 113/98/6 114/99/3 115/100/3
f 115/100/3 116/101/4 113/98/6
s 0
f 117/102/3 118/103/3 119/104/3
f 119/104/3 120/105/3 117/102/3
f 118/103/3 117/102/3 116/101/3
f 116/101/3 115/100/3 118/103/3
f 81/71/4 79/69/4 119/104/4
f 119/104/4 121/75/4 81/71/4
f 121/75/4 119/104/4 118/103/4
f 118/103/4 122/93/4 121/75/4
f 115/100/4 123/80/4 122/93/4
f 122/93/4 118/103/4 115/100/4
f 123/80/4 115/100/4 114/99/4
f 114/99/4 124/81/4 123/80/4
s 1
f 125/106/7 126/107/7 127/108/7
s 0
f 127/108/8 128/109/8 125/106/8
f 129/110/9 130/111/9 131/112/9
f 131/112/9 132/113/9 129/110/9
f 133/114/10 134/115/10 135/116/10
s 1
f 135/116/11 136/117/11 133/114/11
s 0
f 137/118/9 138/119/9 139/120/9
f 139/120/9 140/121/9 137/118/9
f 141/122/9 142/111/9 143/123/9
f 143/123/9 144/124/9 141/122/9
f 130/111/9 145/122/9 146/125/9
f 146/125/9 131/112/9 130/111/9
f 147/126/9 143/123/9 139/120/9
f 139/120/9 138/119/9 147/126/9
f 144/124/9 143/123/9 147/126/9
f 147/126/9 148/127/9 144/124/9
f 148/127/9 147/126/9 149/128/9
f 149/128/9 150/129/9 148/127/9
f 151/130/9 152/131/9 153/132/9
f 153/132/9 154/133/9 151/130/9
f 155/134/9 156/135/9 157/136/9
f 157/136/9 158/137/9 155/134/9
f 159/138/9 149/128/9 155/134/9
f 155/134/9 158/137/9 159/138/9
f 160/139/9 150/129/9 149/128/9
f 149/128/9 159/138/9 160/139/9
f 161/140/9 162/139/9 163/138/9
f 163/138/9 164/141/9 161/140/9
f 165/142/7 166/143/7 167/144/7
f 167/144/9 168/145/9 165/142/9
f 169/146/9 129/110/9 132/113/9
f 132/113/9 170/147/9 169/146/9
f 171/148/9 172/149/9 131/112/9
f 131/112/9 146/125/9 171/148/9
f 173/150/9 174/151/9 175/152/9
f 175/152/9 172/149/9 173/150/9
f 176/153/9 173/150/9 172/149/9
f 172/149/9 171/148/9 176/153/9
f 177/154/9 175/152/9 174/151/9
f 174/151/9 178/155/9 177/154/9
f 179/156/9 180/157/9 173/150/9
f 173/150/9 176/153/9 179/156/9
f 181/158/12 127/108/12 126/107/12
s 1
f 126/107/9 180/157/9 181/158/9
s 0
f 182/159/9 183/160/9 184/161/9
f 184/161/9 185/162/9 182/159/9
f 186/163/9 164/141/9 182/159/9
f 182/159/9 185/162/9 186/163/9
f 187/164/9 161/140/9 164/141/9
f 164/141/9 186/163/9 187/164/9
f 165/142/7 188/165/7 189/166/7
f 189/166/7 190/167/7 166/143/7
f 165/142/9 189/166/9 166/143/9
f 191/168/9 187/164/9 186/163/9
f 191/168/9 186/163/9 192/169/9
f 193/170/9 191/168/9 192/169/9
s 1
f 194/171/13 195/172/14 190/167/15
f 190/167/15 189/166/9 194/171/13
s 0
f 166/143/9 196/173/9 197/174/9
f 197/174/9 167/144/9 166/143/9
f 133/114/11 136/117/11 190/167/11
s 1
f 190/167/15 195/172/14 133/114/9
s 0
f 164/141/9 163/138/9 198/137/9
f 198/137/9 182/159/9 164/141/9
f 199/136/9 183/160/9 182/159/9
f 182/159/9 198/137/9 199/136/9
f 153/132/9 152/131/9 157/136/9
f 157/136/9 156/135/9 153/132/9
f 197/174/9 196/173/9 184/161/9
f 184/161/9 183/160/9 197/174/9
f 200/175/16 201/176/16 202/177/16
f 202/177/16 203/178/16 200/175/16
f 204/179/16 205/180/16 206/181/16
f 206/181/16 207/182/16 204/179/16
f 208/183/16 209/184/16 210/185/16
f 210/185/16 211/186/16 208/183/16
f 205/180/16 212/187/16 213/188/16
f 213/188/16 206/181/16 205/180/16
f 214/189/17 215/190/17 210/185/17
f 210/185/18 209/184/18 214/189/18
f 216/191/16 217/192/16 215/190/16
s 1
f 215/190/17 214/189/17 216/191/17
s 0
f 218/193/16 204/179/16 207/182/16
f 207/182/16 219/194/16 218/193/16
f 220/195/16 221/196/16 213/188/16
f 213/188/16 222/197/16 220/195/16
f 223/198/16 224/199/16 225/200/16
f 225/200/16 226/201/16 223/198/16
f 227/202/16 228/203/16 229/204/16
f 229/204/16 230/205/16 227/202/16
f 231/206/16 225/200/16 224/199/16
f 224/199/16 232/207/16 231/206/16
f 233/208/16 234/209/16 229/204/16
f 229/204/16 228/203/16 233/208/16
f 233/208/16 235/210/16 236/211/16
f 236/211/16 234/209/16 233/208/16
f 237/212/16 238/213/16 239/214/16
f 239/214/16 240/215/16 237/212/16
f 205/180/16 215/190/16 217/192/16
f 217/192/16 212/187/16 205/180/16
f 212/187/16 241/216/16 222/197/16
f 222/197/16 213/188/16 212/187/16
f 242/217/16 243/218/16 221/196/16
f 221/196/16 239/214/16 242/217/16
f 223/198/16 226/201/16 230/205/16
f 230/205/16 229/204/16 223/198/16
f 234/209/16 244/219/16 223/198/16
f 223/198/16 229/204/16 234/209/16
f 245/205/16 246/201/16 247/220/16
f 247/220/16 238/213/16 245/205/16
f 240/215/16 239/214/16 221/196/16
f 221/196/16 220/195/16 240/215/16
f 243/218/16 206/181/16 213/188/16
f 213/188/16 221/196/16 243/218/16
f 248/202/16 245/205/16 238/213/16
f 238/213/16 237/212/16 248/202/16
f 242/217/16 239/214/16 238/213/16
f 238/213/16 247/220/16 242/217/16
f 105/90/4 107/92/4 249/221/4
f 249/221/2 102/89/2 105/90/2
s 1
f 250/222/9 193/170/9 192/169/19
s 0
f 192/169/12 251/223/12 250/222/12
f 134/115/12 251/223/12 192/169/12
s 1
f 192/169/19 135/116/19 134/115/19
s 0
f 120/105/3 119/104/3 79/69/3
f 79/69/3 78/68/3 120/105/3
f 241/216/16 212/187/16 217/192/16
f 252/224/20 241/216/20 217/192/20
f 216/191/18 252/224/18 217/192/18
s 1
f 253/225/9 181/158/9 180/157/9
s 0
f 180/157/19 179/156/19 253/225/19
f 254/226/16 244/219/16 234/209/16
f 234/209/16 236/211/16 254/226/16
f 201/176/16 255/227/16 256/228/16
f 256/228/16 202/177/16 201/176/16
f 254/226/16 256/228/16 255/227/16
f 255/227/16 244/219/16 254/226/16
f 76/66/2 75/65/2 99/88/2
f 99/88/2 98/87/2 76/66/2
f 257/229/1 55/51/1 54/50/1
f 54/50/1 258/230/1 257/229/1
s 1
f 249/221/4 107/92/4 56/52/1
f 252/224/16 216/191/16 259/231/9
f 17/17/1 236/211/16 235/210/16
f 260/232/19 214/189/16 261/233/21
f 8/8/1 256/228/16 254/226/16
f 254/226/16 5/5/1 8/8/1
f 98/87/22 258/230/1 54/50/1
f 54/50/1 76/66/4 98/87/22
f 76/66/4 54/50/1 53/49/1
f 53/49/1 73/63/4 76/66/4
f 101/76/4 262/82/6 258/230/1
f 258/230/1 98/87/22 101/76/4
f 73/63/4 53/49/1 56/52/1
f 56/52/1 107/92/4 73/63/4
f 77/67/23 250/222/9 251/223/9
f 251/223/9 78/68/4 77/67/23
f 194/171/13 113/98/6 116/101/4
f 116/101/4 195/172/14 194/171/13
f 250/222/9 77/67/23 191/168/9
f 191/168/9 193/170/9 250/222/9
f 133/114/9 117/102/4 120/105/4
f 120/105/4 134/115/9 133/114/9
s 0
f 127/108/8 263/234/8 264/235/8
f 264/235/8 128/109/8 127/108/8
s 1
f 181/158/9 265/236/21 263/234/9
s 0
f 263/234/12 127/108/12 181/158/12
s 1
f 189/166/9 188/165/9 113/98/6
f 113/98/6 194/171/13 189/166/9
f 195/172/14 116/101/4 117/102/4
f 117/102/4 133/114/9 195/172/14
f 236/211/16 17/17/1 5/5/1
f 5/5/1 254/226/16 236/211/16
f 256/228/16 8/8/1 70/62/1
f 70/62/1 202/177/16 256/228/16
f 209/184/16 266/237/16 261/233/21
f 261/233/21 214/189/16 209/184/16
s 0
f 208/183/24 267/238/24 266/237/24
s 1
f 266/237/16 209/184/16 208/183/16
f 268/239/16 181/158/9 253/225/9
f 253/225/9 269/240/16 268/239/16
f 78/68/4 251/223/9 134/115/9
f 134/115/9 120/105/4 78/68/4
f 202/177/16 70/62/1 69/61/1
f 69/61/1 203/178/16 202/177/16
s 0
f 270/241/4 271/91/4 272/242/4
f 273/243/4 274/244/4 95/84/4
f 95/84/4 94/83/4 273/243/4
f 111/96/4 271/91/4 270/241/4
f 270/241/4 112/97/4 111/96/4
f 109/94/4 90/79/4 89/78/4
f 89/78/4 112/97/4 109/94/4
f 270/241/4 272/242/4 83/73/4
f 83/73/4 110/95/4 270/241/4
f 112/97/4 270/241/4 110/95/4
f 110/95/4 109/94/4 112/97/4
f 275/72/4 85/71/4 274/244/4
f 274/244/4 273/243/4 275/72/4
f 109/94/4 108/93/4 91/80/4
f 91/80/4 90/79/4 109/94/4
f 95/84/4 274/244/4 84/74/4
f 84/74/4 276/245/4 95/84/4
f 96/85/4 95/84/4 276/245/4
f 271/91/4 96/85/4 276/245/4
f 276/245/4 272/242/4 271/91/4
f 84/74/4 274/244/4 85/71/4
f 86/75/4 110/95/4 83/73/4
