# Blender 3.6.0
# www.blender.org
o walls_1stfloor_01.001
v 0.989260 -3.479241 -19.618622
v 1.211224 -3.406116 -19.618649
v 1.211224 -3.406116 -19.700916
v 0.989260 -3.479241 -19.702127
v 0.781215 -3.542161 -19.618622
v 0.781215 -3.542161 -19.702127
v 0.579244 -3.593518 -19.618622
v 0.579244 -3.593518 -19.702127
v 0.383382 -3.633388 -19.618622
v 0.383382 -3.633388 -19.702127
v 0.193652 -3.661859 -19.618622
v 0.193652 -3.661859 -19.702127
v 0.010058 -3.679036 -19.618622
v 0.010057 -3.679036 -19.702127
v -0.167422 -3.685033 -19.618622
v -0.167422 -3.685033 -19.702127
v -0.338843 -3.679968 -19.618622
v -0.338843 -3.679968 -19.702127
v -0.504297 -3.663957 -19.618622
v -0.504297 -3.663957 -19.702127
v -0.663918 -3.637100 -19.618622
v -0.663918 -3.637100 -19.702127
v -0.817877 -3.599469 -19.618622
v -0.817877 -3.599469 -19.702127
v -0.966376 -3.551098 -19.618622
v -0.966376 -3.551098 -19.702127
v -1.109635 -3.491969 -19.618622
v -1.109635 -3.491969 -19.702127
v -1.272098 -3.406116 -19.700916
v -1.272098 -3.406116 -19.618649
v 0.989260 -3.487041 -19.709927
v 1.211224 -3.413916 -19.708717
v 1.211224 -3.568450 -19.708717
v 0.989260 -3.641576 -19.709927
v 1.211224 -3.413916 -19.610847
v 0.989260 -3.487041 -19.610821
v 0.989260 -3.641576 -19.610821
v 1.211224 -3.568450 -19.610847
v 0.781215 -3.549961 -19.709927
v 0.781215 -3.704496 -19.709927
v 0.781215 -3.549961 -19.610821
v 0.781215 -3.704496 -19.610821
v 0.579244 -3.601318 -19.709927
v 0.579244 -3.755853 -19.709927
v 0.579244 -3.601318 -19.610821
v 0.579244 -3.755853 -19.610821
v 0.383382 -3.641187 -19.709927
v 0.383382 -3.795722 -19.709927
v 0.383382 -3.641187 -19.610821
v 0.383382 -3.795722 -19.610821
v 0.193652 -3.669659 -19.709927
v 0.193652 -3.824194 -19.709927
v 0.193652 -3.669659 -19.610821
v 0.193652 -3.824194 -19.610821
v 0.010057 -3.686836 -19.709927
v 0.010057 -3.841371 -19.709927
v 0.010058 -3.686836 -19.610821
v 0.010058 -3.841371 -19.610821
v -0.167422 -3.692833 -19.709927
v -0.167422 -3.847368 -19.709927
v -0.167422 -3.692833 -19.610821
v -0.167422 -3.847368 -19.610821
v -0.338843 -3.687768 -19.709927
v -0.338843 -3.842303 -19.709927
v -0.338843 -3.687768 -19.610821
v -0.338843 -3.842303 -19.610821
v -0.504297 -3.671757 -19.709927
v -0.504297 -3.826292 -19.709927
v -0.504297 -3.671757 -19.610821
v -0.504297 -3.826292 -19.610821
v -0.663918 -3.644900 -19.709927
v -0.663918 -3.799435 -19.709927
v -0.663918 -3.644900 -19.610821
v -0.663918 -3.799435 -19.610821
v -0.817877 -3.607269 -19.709927
v -0.817877 -3.761804 -19.709927
v -0.817877 -3.607269 -19.610821
v -0.817877 -3.761804 -19.610821
v -0.966376 -3.558898 -19.709927
v -0.966376 -3.713433 -19.709927
v -0.966376 -3.558898 -19.610821
v -0.966376 -3.713433 -19.610821
v -1.109635 -3.499769 -19.709927
v -1.109635 -3.654304 -19.709927
v -1.109635 -3.499769 -19.610821
v -1.109635 -3.654304 -19.610821
v -1.272098 -3.413916 -19.708717
v -1.272098 -3.568450 -19.708717
v -1.272098 -3.413916 -19.610847
v -1.272098 -3.568450 -19.610847
vn -0.3007 0.9502 0.0822
vn -0.3121 0.9474 0.0708
vn -0.3118 0.9475 -0.0704
vn -0.2997 0.9505 -0.0824
vn -0.2678 0.9599 0.0829
vn -0.2682 0.9598 -0.0829
vn -0.2229 0.9712 0.0839
vn -0.2232 0.9711 -0.0839
vn -0.1740 0.9811 0.0848
vn -0.1742 0.9811 -0.0848
vn -0.1211 0.9890 0.0855
vn -0.1210 0.9890 -0.0855
vn -0.0639 0.9942 0.0860
vn -0.0636 0.9943 -0.0860
vn -0.0026 0.9963 0.0862
vn -0.0021 0.9963 -0.0862
vn 0.0623 0.9943 0.0861
vn 0.0631 0.9943 -0.0861
vn 0.1304 0.9878 0.0855
vn 0.1316 0.9876 -0.0855
vn 0.2010 0.9759 0.0845
vn 0.2025 0.9756 -0.0845
vn 0.2729 0.9584 0.0829
vn 0.2748 0.9579 -0.0829
vn 0.3451 0.9351 0.0809
vn 0.3472 0.9343 -0.0809
vn 0.4277 0.9004 0.0795
vn 0.4257 0.9013 -0.0798
vn 0.4646 0.8835 -0.0603
vn 0.4663 0.8825 0.0608
vn 0.0013 0.0043 -1.0000
vn 0.0033 0.0064 -1.0000
vn 0.0054 -0.0000 -1.0000
vn 0.0027 -0.0000 -1.0000
vn -0.0020 0.0064 1.0000
vn -0.0013 0.0043 1.0000
vn -0.0000 -0.0000 1.0000
vn 0.0001 -0.0000 1.0000
vn -0.0011 0.0042 -1.0000
vn -0.0000 -0.0000 -1.0000
vn -0.0011 0.0042 1.0000
vn -0.0009 0.0040 -1.0000
vn -0.0009 0.0040 1.0000
vn -0.0007 0.0039 -1.0000
vn -0.0007 0.0039 1.0000
vn -0.0004 0.0038 -1.0000
vn -0.0005 0.0038 1.0000
vn -0.0003 0.0037 -1.0000
vn -0.0002 0.0037 1.0000
vn -0.0000 0.0036 -1.0000
vn -0.0009 0.0036 1.0000
vn 0.0002 0.0034 -1.0000
vn 0.0002 0.0034 1.0000
vn 0.0004 0.0033 -1.0000
vn 0.0004 0.0033 1.0000
vn 0.0007 0.0032 -1.0000
vn 0.0006 0.0032 1.0000
vn 0.0009 0.0031 -1.0000
vn 0.0008 0.0031 1.0000
vn 0.0011 0.0030 -1.0000
vn 0.0011 0.0030 1.0000
vn -0.0023 0.0031 -1.0000
vn -0.0037 -0.0000 -1.0000
vn 0.0013 0.0031 1.0000
vn -0.0001 -0.0000 1.0000
vn -0.0044 0.0058 -1.0000
vn -0.0074 -0.0000 -1.0000
vn 0.0029 0.0058 1.0000
vn -0.0002 -0.0000 1.0000
vt 0.178562 0.980936
vt 0.178498 1.054034
vt 0.124871 1.054034
vt 0.124808 0.980936
vt 0.178562 0.889652
vt 0.124808 0.889652
vt 0.178562 0.800914
vt 0.124808 0.800914
vt 0.178562 0.718024
vt 0.124808 0.718024
vt 0.178562 0.638515
vt 0.124808 0.638515
vt 0.178562 0.562188
vt 0.124808 0.562188
vt 0.178562 0.488818
vt 0.124808 0.488818
vt 0.178562 0.418148
vt 0.124808 0.418148
vt 0.178562 0.349887
vt 0.124808 0.349887
vt 0.178562 0.283710
vt 0.124808 0.283710
vt 0.178562 0.219258
vt 0.124808 0.219258
vt 0.178562 0.156137
vt 0.124808 0.156137
vt 0.178562 0.093928
vt 0.124808 0.093928
vt 0.124871 0.027378
vt 0.178498 0.027378
vt 0.116721 0.980936
vt 0.116721 1.054034
vt 0.055991 1.054034
vt 0.055991 0.980935
vt 0.186328 1.054034
vt 0.186328 0.980936
vt 0.240726 0.980936
vt 0.240726 1.054034
vt 0.116721 0.889652
vt 0.055991 0.889652
vt 0.186328 0.889652
vt 0.240726 0.889652
vt 0.116721 0.800914
vt 0.055991 0.800914
vt 0.186328 0.800914
vt 0.240726 0.800914
vt 0.116721 0.718024
vt 0.055991 0.718024
vt 0.186328 0.718024
vt 0.240726 0.718024
vt 0.116721 0.638515
vt 0.055991 0.638515
vt 0.186328 0.638515
vt 0.240726 0.638515
vt 0.116721 0.562188
vt 0.055991 0.562188
vt 0.186328 0.562188
vt 0.240726 0.562188
vt 0.116721 0.488818
vt 0.055991 0.488818
vt 0.186328 0.488818
vt 0.240726 0.488818
vt 0.116721 0.418148
vt 0.055991 0.418148
vt 0.186328 0.418148
vt 0.240726 0.418148
vt 0.116721 0.349887
vt 0.055991 0.349887
vt 0.186328 0.349887
vt 0.240726 0.349887
vt 0.116721 0.283710
vt 0.055991 0.283710
vt 0.186328 0.283710
vt 0.240726 0.283710
vt 0.116721 0.219258
vt 0.055991 0.219258
vt 0.186328 0.219258
vt 0.240726 0.219258
vt 0.116721 0.156137
vt 0.055991 0.156137
vt 0.186328 0.156137
vt 0.240726 0.156137
vt 0.116721 0.093928
vt 0.055991 0.093928
vt 0.186328 0.093928
vt 0.240726 0.093928
vt 0.116721 0.027378
vt 0.055991 0.027378
vt 0.186328 0.027378
vt 0.240726 0.027378
s 1
f 1/1/1 2/2/2 3/3/3
f 3/3/3 4/4/4 1/1/1
f 5/5/5 1/1/1 4/4/4
f 4/4/4 6/6/6 5/5/5
f 7/7/7 5/5/5 6/6/6
f 6/6/6 8/8/8 7/7/7
f 9/9/9 7/7/7 8/8/8
f 8/8/8 10/10/10 9/9/9
f 11/11/11 9/9/9 10/10/10
f 10/10/10 12/12/12 11/11/11
f 13/13/13 11/11/11 12/12/12
f 12/12/12 14/14/14 13/13/13
f 15/15/15 13/13/13 14/14/14
f 14/14/14 16/16/16 15/15/15
f 17/17/17 15/15/15 16/16/16
f 16/16/16 18/18/18 17/17/17
f 19/19/19 17/17/17 18/18/18
f 18/18/18 20/20/20 19/19/19
f 21/21/21 19/19/19 20/20/20
f 20/20/20 22/22/22 21/21/21
f 23/23/23 21/21/21 22/22/22
f 22/22/22 24/24/24 23/23/23
f 25/25/25 23/23/23 24/24/24
f 24/24/24 26/26/26 25/25/25
f 27/27/27 25/25/25 26/26/26
f 26/26/26 28/28/28 27/27/27
f 28/28/28 29/29/29 30/30/30
f 30/30/30 27/27/27 28/28/28
f 31/31/31 32/32/32 33/33/33
f 33/33/33 34/34/34 31/31/31
f 35/35/35 36/36/36 37/37/37
f 37/37/37 38/38/38 35/35/35
f 39/39/39 31/31/31 34/34/34
f 34/34/34 40/40/40 39/39/39
f 36/36/36 41/41/41 42/42/37
f 42/42/37 37/37/37 36/36/36
f 43/43/42 39/39/39 40/40/40
f 40/40/40 44/44/40 43/43/42
f 41/41/41 45/45/43 46/46/37
f 46/46/37 42/42/37 41/41/41
f 47/47/44 43/43/42 44/44/40
f 44/44/40 48/48/40 47/47/44
f 45/45/43 49/49/45 50/50/37
f 50/50/37 46/46/37 45/45/43
f 51/51/46 47/47/44 48/48/40
f 48/48/40 52/52/40 51/51/46
f 49/49/45 53/53/47 54/54/37
f 54/54/37 50/50/37 49/49/45
f 55/55/48 51/51/46 52/52/40
f 52/52/40 56/56/40 55/55/48
f 53/53/47 57/57/49 58/58/37
f 58/58/37 54/54/37 53/53/47
f 59/59/50 55/55/48 56/56/40
f 56/56/40 60/60/40 59/59/50
f 57/57/49 61/61/51 62/62/37
f 62/62/37 58/58/37 57/57/49
f 63/63/52 59/59/50 60/60/40
f 60/60/40 64/64/40 63/63/52
f 61/61/51 65/65/53 66/66/37
f 66/66/37 62/62/37 61/61/51
f 67/67/54 63/63/52 64/64/40
f 64/64/40 68/68/40 67/67/54
f 65/65/53 69/69/55 70/70/37
f 70/70/37 66/66/37 65/65/53
f 71/71/56 67/67/54 68/68/40
f 68/68/40 72/72/40 71/71/56
f 69/69/55 73/73/57 74/74/37
f 74/74/37 70/70/37 69/69/55
f 75/75/58 71/71/56 72/72/40
f 72/72/40 76/76/40 75/75/58
f 73/73/57 77/77/59 78/78/37
f 78/78/37 74/74/37 73/73/57
f 79/79/60 75/75/58 76/76/40
f 76/76/40 80/80/40 79/79/60
f 77/77/59 81/81/61 82/82/37
f 82/82/37 78/78/37 77/77/59
f 83/83/62 79/79/60 80/80/40
f 80/80/40 84/84/63 83/83/62
f 81/81/61 85/85/64 86/86/65
f 86/86/65 82/82/37 81/81/61
f 87/87/66 83/83/62 84/84/63
f 84/84/63 88/88/67 87/87/66
f 85/85/64 89/89/68 90/90/69
f 90/90/69 86/86/65 85/85/64
f 3/3/3 32/32/32 31/31/31
f 31/31/31 4/4/4 3/3/3
f 1/1/1 36/36/36 35/35/35
f 35/35/35 2/2/2 1/1/1
f 4/4/4 31/31/31 39/39/39
f 39/39/39 6/6/6 4/4/4
f 5/5/5 41/41/41 36/36/36
f 36/36/36 1/1/1 5/5/5
f 6/6/6 39/39/39 43/43/42
f 43/43/42 8/8/8 6/6/6
f 7/7/7 45/45/43 41/41/41
f 41/41/41 5/5/5 7/7/7
f 8/8/8 43/43/42 47/47/44
f 47/47/44 10/10/10 8/8/8
f 9/9/9 49/49/45 45/45/43
f 45/45/43 7/7/7 9/9/9
f 10/10/10 47/47/44 51/51/46
f 51/51/46 12/12/12 10/10/10
f 11/11/11 53/53/47 49/49/45
f 49/49/45 9/9/9 11/11/11
f 12/12/12 51/51/46 55/55/48
f 55/55/48 14/14/14 12/12/12
f 13/13/13 57/57/49 53/53/47
f 53/53/47 11/11/11 13/13/13
f 14/14/14 55/55/48 59/59/50
f 59/59/50 16/16/16 14/14/14
f 15/15/15 61/61/51 57/57/49
f 57/57/49 13/13/13 15/15/15
f 16/16/16 59/59/50 63/63/52
f 63/63/52 18/18/18 16/16/16
f 17/17/17 65/65/53 61/61/51
f 61/61/51 15/15/15 17/17/17
f 18/18/18 63/63/52 67/67/54
f 67/67/54 20/20/20 18/18/18
f 19/19/19 69/69/55 65/65/53
f 65/65/53 17/17/17 19/19/19
f 20/20/20 67/67/54 71/71/56
f 71/71/56 22/22/22 20/20/20
f 21/21/21 73/73/57 69/69/55
f 69/69/55 19/19/19 21/21/21
f 22/22/22 71/71/56 75/75/58
f 75/75/58 24/24/24 22/22/22
f 23/23/23 77/77/59 73/73/57
f 73/73/57 21/21/21 23/23/23
f 24/24/24 75/75/58 79/79/60
f 79/79/60 26/26/26 24/24/24
f 25/25/25 81/81/61 77/77/59
f 77/77/59 23/23/23 25/25/25
f 26/26/26 79/79/60 83/83/62
f 83/83/62 28/28/28 26/26/26
f 27/27/27 85/85/64 81/81/61
f 81/81/61 25/25/25 27/27/27
f 28/28/28 83/83/62 87/87/66
f 87/87/66 29/29/29 28/28/28
f 30/30/30 89/89/68 85/85/64
f 85/85/64 27/27/27 30/30/30
