# Blender 3.6.0
# www.blender.org
o lamps_1stfloor_12.002
v -4.651158 -4.032697 -10.223961
v -4.618816 -4.270751 -10.246607
v -4.831088 -4.270751 -10.284037
v -4.808442 -4.032697 -10.251694
v -4.677332 -4.032697 -10.064451
v -4.654686 -4.270751 -10.032109
v -4.617257 -4.270751 -10.244382
v -4.649599 -4.032697 -10.221736
v -4.810670 -4.032697 -10.250136
v -4.833316 -4.270751 -10.282478
v -4.870746 -4.270751 -10.070207
v -4.838403 -4.032697 -10.092853
v -4.836843 -4.032697 -10.090625
v -4.869185 -4.270751 -10.067979
v -4.656913 -4.270751 -10.030550
v -4.679559 -4.032697 -10.062892
vn 0.1725 0.1165 -0.9781
vn 0.1724 0.1162 -0.9782
vn 0.9781 0.1165 0.1725
vn 0.9782 0.1161 0.1724
vn 0.9782 0.1162 0.1724
vn -0.9782 0.1162 -0.1724
vn -0.9781 0.1165 -0.1725
vn -0.9782 0.1161 -0.1724
vn -0.1724 0.1162 0.9782
vn -0.1725 0.1165 0.9781
vt 0.117658 0.999500
vt 0.000500 0.000500
vt 0.905045 0.000500
vt 0.787887 0.999500
s 0
f 1/1/1 2/2/1 3/3/1
f 3/3/1 4/4/1 1/1/2
f 5/1/3 6/2/3 7/3/3
f 7/3/3 8/4/4 5/1/5
f 9/1/6 10/2/7 11/3/7
f 11/3/7 12/4/8 9/1/7
f 13/1/9 14/2/10 15/3/10
f 15/3/10 16/4/10 13/1/10
