# Blender 3.6.0
# www.blender.org
o ornament_doors_08
v -6.183746 -3.286250 9.708954
v -6.183746 -3.286250 9.641212
v -6.183746 -3.180562 9.386058
v -6.183746 -2.971622 9.177118
v -6.183746 -2.716468 9.071430
v -6.183746 -2.554992 9.708954
v -6.183746 -2.554992 9.071430
v -6.183746 -2.554992 10.346478
v -6.183746 -2.716468 10.346478
v -6.183746 -2.971622 10.240789
v -6.183746 -3.180562 10.031849
v -6.183746 -3.286250 9.776696
vn 1.0000 -0.0000 -0.0000
vt 0.500000 0.573441
vt 0.446924 0.573441
vt 0.247011 0.490634
vt 0.083307 0.326930
vt 0.000500 0.127017
vt 0.500000 0.000500
vt 0.000500 0.000500
vt 0.999500 0.000500
vt 0.999500 0.127017
vt 0.916694 0.326929
vt 0.752989 0.490634
vt 0.553076 0.573441
s 0
f 1/1/1 2/2/1 3/3/1
f 3/3/1 4/4/1 5/5/1
f 1/1/1 3/3/1 5/5/1
f 6/6/1 1/1/1 5/5/1
f 7/7/1 6/6/1 5/5/1
f 8/8/1 9/9/1 10/10/1
f 10/10/1 11/11/1 12/12/1
f 8/8/1 10/10/1 12/12/1
f 8/8/1 12/12/1 1/1/1
f 6/6/1 8/8/1 1/1/1
