# Blender 3.6.0
# www.blender.org
o ornament_doors_07
v -4.668898 -3.286250 11.274607
v -4.736640 -3.286250 11.274607
v -4.991794 -3.180562 11.274607
v -5.200733 -2.971622 11.274607
v -5.306421 -2.716468 11.274607
v -4.668898 -2.554992 11.274607
v -5.306421 -2.554992 11.274607
v -4.031374 -2.554992 11.274608
v -4.031374 -2.716468 11.274608
v -4.137062 -2.971622 11.274607
v -4.346002 -3.180562 11.274607
v -4.601156 -3.286250 11.274607
vn -0.0000 -0.0000 -1.0000
vt 0.500000 0.573441
vt 0.446924 0.573441
vt 0.247011 0.490634
vt 0.083307 0.326930
vt 0.000500 0.127017
vt 0.500000 0.000500
vt 0.000500 0.000500
vt 0.999500 0.000500
vt 0.999500 0.127017
vt 0.916694 0.326929
vt 0.752989 0.490634
vt 0.553076 0.573441
s 0
f 1/1/1 2/2/1 3/3/1
f 3/3/1 4/4/1 5/5/1
f 1/1/1 3/3/1 5/5/1
f 6/6/1 1/1/1 5/5/1
f 7/7/1 6/6/1 5/5/1
f 8/8/1 9/9/1 10/10/1
f 10/10/1 11/11/1 12/12/1
f 8/8/1 10/10/1 12/12/1
f 8/8/1 12/12/1 1/1/1
f 6/6/1 8/8/1 1/1/1
