# Blender 3.6.0
# www.blender.org
o lamps_1stfloor_10.002
v -4.666578 -4.032697 -2.270689
v -4.641199 -4.270751 -2.300935
v -4.855926 -4.270751 -2.282149
v -4.825681 -4.032697 -2.256770
v -4.650577 -4.032697 -2.109841
v -4.620331 -4.270751 -2.084462
v -4.639117 -4.270751 -2.299189
v -4.664496 -4.032697 -2.268944
v -4.827429 -4.032697 -2.254689
v -4.857675 -4.270751 -2.280067
v -4.838889 -4.270751 -2.065341
v -4.813510 -4.032697 -2.095586
v -4.811426 -4.032697 -2.093838
v -4.836804 -4.270751 -2.063593
v -4.622078 -4.270751 -2.082379
v -4.652323 -4.032697 -2.107758
vn -0.0866 0.1165 -0.9894
vn -0.0866 0.1162 -0.9894
vn 0.9894 0.1165 -0.0866
vn 0.9894 0.1161 -0.0866
vn 0.9894 0.1162 -0.0866
vn -0.9894 0.1162 0.0866
vn -0.9894 0.1165 0.0866
vn -0.9894 0.1161 0.0866
vn 0.0866 0.1162 0.9894
vn 0.0866 0.1165 0.9894
vt 0.117658 0.999500
vt 0.000500 0.000500
vt 0.905045 0.000500
vt 0.787887 0.999500
s 0
f 1/1/1 2/2/1 3/3/1
f 3/3/1 4/4/1 1/1/2
f 5/1/3 6/2/3 7/3/3
f 7/3/3 8/4/4 5/1/5
f 9/1/6 10/2/7 11/3/7
f 11/3/7 12/4/8 9/1/7
f 13/1/9 14/2/10 15/3/10
f 15/3/10 16/4/10 13/1/10
