# Blender 3.6.0
# www.blender.org
o walls_1stfloor_01
v -1.272098 -3.555880 -19.169876
v -1.272098 -3.555880 -19.708717
v 2.063572 -2.305890 -19.159805
v 2.063572 -2.305897 -19.746248
v 1.211224 -3.555880 -19.708717
v 1.211224 -3.555880 -19.169876
v 3.648244 -2.313709 -19.746593
v 3.648244 -2.313709 -19.159786
v 1.316983 -3.877696 -19.171009
v 1.318066 -3.876712 -19.171011
v 1.315810 -3.876059 -19.171122
v 1.213688 -3.565743 -19.171087
v 1.212051 -3.567021 -19.171015
v -0.166713 -4.175927 -19.170986
v -0.359974 -4.170218 -19.170986
v -0.548331 -4.151989 -19.170986
v -0.731652 -4.121145 -19.170986
v -0.909764 -4.077611 -19.170986
v -1.082469 -4.021355 -19.170986
v -1.249548 -3.952395 -19.170986
v 0.234191 -4.150258 -19.170986
v 0.031361 -4.169236 -19.170986
v 1.093002 -3.953597 -19.170986
v 0.871135 -4.020698 -19.170986
v 3.541275 -2.371116 -19.159786
v 3.541275 -2.371116 -19.746593
v 3.650287 -2.602723 -19.150646
v 3.778574 -2.537340 -19.150646
v 3.660619 -2.317441 -19.150646
v 3.545168 -2.379387 -19.150646
v 3.424512 -2.421654 -19.159786
v 3.424514 -2.421654 -19.746593
v 3.518296 -2.659854 -19.150646
v 3.427862 -2.430161 -19.150646
v 3.308746 -2.462822 -19.159786
v 3.308746 -2.462822 -19.746593
v 3.385964 -2.706911 -19.150646
v 3.311503 -2.471538 -19.150646
v 3.193920 -2.494739 -19.159786
v 3.193920 -2.494739 -19.746593
v 3.253339 -2.743777 -19.150646
v 3.196042 -2.503631 -19.150646
v 3.079953 -2.517522 -19.159786
v 3.079953 -2.517522 -19.746593
v 3.120511 -2.770330 -19.150646
v 3.081401 -2.526549 -19.150646
v 2.966712 -2.531275 -19.159786
v 2.966713 -2.531275 -19.746593
v 2.987608 -2.786470 -19.150642
v 2.967458 -2.540386 -19.150646
v 2.854042 -2.536071 -19.159786
v 2.854043 -2.536071 -19.746593
v 2.854788 -2.792125 -19.150646
v 2.854069 -2.545213 -19.150646
v 2.741760 -2.531947 -19.159786
v 2.741760 -2.531947 -19.746593
v 2.722234 -2.787255 -19.150646
v 2.741061 -2.541062 -19.150646
v 2.629673 -2.518893 -19.159786
v 2.629673 -2.518893 -19.746593
v 2.590135 -2.771871 -19.150646
v 2.628262 -2.527925 -19.150646
v 2.517607 -2.496859 -19.159786
v 2.517608 -2.496859 -19.746593
v 2.458669 -2.746023 -19.150646
v 2.515501 -2.505756 -19.150646
v 2.405407 -2.465758 -19.159786
v 2.405408 -2.465758 -19.746593
v 2.327989 -2.709800 -19.150646
v 2.402643 -2.474472 -19.150646
v 2.292956 -2.425477 -19.159786
v 2.292958 -2.425477 -19.746593
v 2.198211 -2.663310 -19.150646
v 2.289573 -2.433969 -19.150646
v 2.180182 -2.375893 -19.159786
v 2.180182 -2.375893 -19.746593
v 2.069411 -2.606681 -19.150646
v 2.176227 -2.384135 -19.150646
v 2.071600 -2.319259 -19.159786
v 2.071602 -2.319260 -19.746593
v 1.945178 -2.541884 -19.150646
v 2.059267 -2.323137 -19.150646
v 0.989260 -3.634564 -19.169849
v 1.205943 -3.563179 -19.169876
v 1.205943 -3.563179 -19.708744
v 0.989260 -3.634564 -19.709927
v 0.990980 -3.639852 -19.164289
v 1.092322 -3.951506 -19.164289
v 1.312980 -3.874671 -19.164289
v 1.209964 -3.567708 -19.164318
v 0.781215 -3.697484 -19.169849
v 0.781215 -3.697484 -19.709927
v 0.782705 -3.702841 -19.164289
v 0.870546 -4.018580 -19.164289
v 0.579244 -3.748841 -19.169849
v 0.579244 -3.748841 -19.709927
v 0.580484 -3.754261 -19.164289
v 0.653575 -4.073750 -19.164289
v 0.383382 -3.788711 -19.169849
v 0.383382 -3.788711 -19.709927
v 0.384349 -3.794186 -19.164289
v 0.441375 -4.116946 -19.164289
v 0.193652 -3.817182 -19.169849
v 0.193652 -3.817182 -19.709927
v 0.194323 -3.822701 -19.164289
v 0.233925 -4.148076 -19.164289
v 0.010058 -3.834359 -19.169849
v 0.010057 -3.834359 -19.709927
v 0.010411 -3.839908 -19.164289
v 0.031221 -4.167042 -19.164289
v -0.167422 -3.840356 -19.169849
v -0.167422 -3.840356 -19.709927
v -0.167410 -3.845916 -19.164289
v -0.166718 -4.173729 -19.164289
v -0.338843 -3.835291 -19.169849
v -0.338843 -3.835291 -19.709927
v -0.339194 -3.840840 -19.164289
v -0.359835 -4.168023 -19.164289
v -0.504297 -3.819280 -19.169849
v -0.504297 -3.819280 -19.709927
v -0.505027 -3.824791 -19.164289
v -0.548043 -4.149810 -19.164289
v -0.663918 -3.792423 -19.169849
v -0.663918 -3.792423 -19.709927
v -0.665040 -3.797868 -19.164289
v -0.731208 -4.118991 -19.164289
v -0.817877 -3.754793 -19.169849
v -0.817877 -3.754793 -19.709927
v -0.819399 -3.760139 -19.164289
v -0.909163 -4.075496 -19.164289
v -0.966376 -3.706422 -19.169849
v -0.966376 -3.706422 -19.709927
v -0.968299 -3.711638 -19.164289
v -1.081709 -4.019291 -19.164289
v -1.109635 -3.647293 -19.169849
v -1.109635 -3.647293 -19.709927
v -1.111952 -3.652346 -19.164289
v -1.248631 -3.950396 -19.164289
v -1.271790 -3.567889 -19.164318
v -1.421221 -3.863055 -19.164289
v -1.267183 -3.564037 -19.708754
v -1.267183 -3.564037 -19.169876
v 2.071602 -2.319260 -19.746593
v 2.071600 -2.319259 -19.159786
v 1.210662 -3.565543 -19.166155
v 1.205943 -3.563179 -19.169876
v 1.205943 -3.563179 -19.708744
v -1.272135 -3.565612 -19.166168
v -1.267183 -3.564037 -19.708754
v -1.267183 -3.564037 -19.169876
v 1.315810 -3.876059 -19.171122
v 1.212051 -3.567021 -19.171015
v 0.654066 -4.075893 -19.170986
v 0.441758 -4.119111 -19.170986
v -1.273732 -3.566863 -19.171015
v -1.424235 -3.864043 -19.171124
v 1.212100 -3.566263 -19.171017
v -1.273660 -3.566097 -19.171017
v -1.275208 -3.565426 -19.171070
v 1.093002 -3.953597 -19.170986
v 1.093206 -3.955606 -19.171017
v 0.654066 -4.075893 -19.170986
v 0.654177 -4.077897 -19.171003
v 0.871486 -4.022657 -19.170994
v 0.871135 -4.020698 -19.170986
v 0.441758 -4.119111 -19.170986
v 0.442014 -4.121079 -19.170990
v 0.234191 -4.150258 -19.170986
v 0.234199 -4.152252 -19.170998
v -0.166713 -4.175927 -19.170986
v -0.166834 -4.177911 -19.170990
v 0.031505 -4.171214 -19.170986
v 0.031361 -4.169236 -19.170986
v -0.548331 -4.151989 -19.170986
v -0.548563 -4.153960 -19.170990
v -0.359974 -4.172204 -19.170990
v -0.359974 -4.170218 -19.170986
v -1.426747 -3.866430 -19.171844
v -1.250123 -3.954310 -19.171000
v -1.273732 -3.566863 -19.171015
v -1.275208 -3.565426 -19.171070
vn -0.4345 0.9005 0.0160
vn -0.5241 0.8514 0.0215
vn -0.5241 0.8517 -0.0000
vn -0.4345 0.9007 -0.0000
vn 0.0043 -0.0091 0.9999
vn 0.0189 0.0054 0.9998
vn 0.0006 0.0006 1.0000
vn -0.0040 -0.0012 1.0000
vn -0.3668 0.9302 0.0156
vn -0.3670 0.9302 -0.0000
vn 0.0043 -0.0108 0.9999
vn -0.0003 0.0006 1.0000
vn -0.3021 0.9532 0.0156
vn -0.3019 0.9533 -0.0000
vn 0.0035 -0.0110 0.9999
vn -0.0002 0.0006 1.0000
vn -0.2325 0.9725 0.0156
vn -0.2325 0.9726 -0.0000
vn 0.0032 -0.0134 0.9999
vn -0.1588 0.9872 0.0156
vn -0.1584 0.9874 -0.0000
vn 0.0022 -0.0134 0.9999
vn -0.0001 0.0006 1.0000
vn -0.0818 0.9965 0.0157
vn -0.0816 0.9967 -0.0000
vn 0.0012 -0.0148 0.9999
vn -0.0030 0.9999 0.0156
vn -0.0029 1.0000 -0.0000
vn -0.0000 -0.0144 0.9999
vn -0.0000 0.0006 1.0000
vn 0.0763 0.9970 0.0157
vn 0.0763 0.9971 -0.0000
vn -0.0011 -0.0139 0.9999
vn 0.1546 0.9879 0.0156
vn 0.1544 0.9880 -0.0000
vn -0.0021 -0.0137 0.9999
vn 0.0001 0.0006 1.0000
vn 0.2305 0.9729 0.0156
vn 0.2302 0.9731 -0.0000
vn -0.0024 -0.0100 0.9999
vn 0.3028 0.9529 0.0156
vn 0.3030 0.9530 -0.0000
vn -0.0030 -0.0093 1.0000
vn 0.0002 0.0006 1.0000
vn 0.3706 0.9287 0.0156
vn 0.3705 0.9288 -0.0000
vn -0.0035 -0.0089 1.0000
vn 0.4326 0.9015 0.0159
vn 0.4327 0.9015 -0.0000
vn -0.0031 -0.0064 1.0000
vn 0.0003 0.0006 1.0000
vn 0.5140 0.8575 0.0215
vn 0.5140 0.8578 -0.0000
vn -0.0155 0.0024 0.9999
vn -0.0000 0.0001 1.0000
vn -0.3015 0.9534 0.0103
vn -0.3339 0.9425 0.0142
vn -0.3340 0.9426 -0.0001
vn -0.3015 0.9535 -0.0000
vn 0.0029 0.0024 1.0000
vn 0.0005 -0.0017 1.0000
vn 0.0034 -0.0010 1.0000
vn 0.0019 0.0027 1.0000
vn -0.2684 0.9632 0.0103
vn -0.2685 0.9633 -0.0000
vn -0.0004 0.0013 1.0000
vn -0.2235 0.9746 0.0103
vn -0.2230 0.9748 -0.0000
vn -0.0003 0.0013 1.0000
vn 0.0004 -0.0016 1.0000
vn -0.1745 0.9846 0.0103
vn -0.1746 0.9846 -0.0000
vn -0.0002 0.0012 1.0000
vn 0.0003 -0.0016 1.0000
vn -0.1214 0.9926 0.0103
vn -0.1212 0.9926 -0.0000
vn -0.0001 0.0012 1.0000
vn 0.0002 -0.0016 1.0000
vn -0.0641 0.9979 0.0103
vn -0.0641 0.9979 -0.0000
vn -0.0001 0.0011 1.0000
vn 0.0001 -0.0016 1.0000
vn -0.0027 0.9999 0.0103
vn -0.0027 1.0000 -0.0000
vn -0.0000 0.0011 1.0000
vn -0.0000 -0.0015 1.0000
vn 0.0624 0.9980 0.0104
vn 0.0626 0.9980 -0.0000
vn 0.0001 0.0011 1.0000
vn -0.0001 -0.0015 1.0000
vn 0.1307 0.9914 0.0104
vn 0.1309 0.9914 -0.0000
vn 0.0001 0.0010 1.0000
vn -0.0001 -0.0014 1.0000
vn 0.2014 0.9795 0.0103
vn 0.2015 0.9795 -0.0000
vn 0.0002 0.0010 1.0000
vn -0.0003 -0.0014 1.0000
vn 0.2735 0.9618 0.0104
vn 0.2738 0.9618 -0.0000
vn -0.0004 -0.0014 1.0000
vn 0.3457 0.9383 0.0104
vn 0.3456 0.9384 -0.0000
vn 0.0004 0.0009 1.0000
vn -0.0005 -0.0013 1.0000
vn 0.4278 0.9038 0.0105
vn 0.4277 0.9039 -0.0000
vn 0.0035 -0.0004 1.0000
vn -0.0006 -0.0013 1.0000
vn -0.0017 0.0026 1.0000
vn -0.0034 -0.0002 1.0000
vn 0.4902 0.8716 -0.0000
vn 0.4901 0.8715 0.0141
vn 1.0000 -0.0039 -0.0000
vn 0.9997 -0.0041 0.0223
vn -0.2257 0.6553 0.7209
vn -1.0000 0.0012 0.0009
vn -1.0000 0.0012 -0.0017
vn -0.3340 0.9426 -0.0000
vn 0.3325 0.6054 0.7232
vn 0.4902 0.8716 0.0019
vn 1.0000 0.0011 -0.0000
vn 0.9999 0.0011 0.0142
vn 0.6325 -0.1955 0.7495
vn 0.0864 -0.2647 0.9605
vn 0.7882 0.2631 0.5564
vn 0.0763 -0.2737 0.9588
vn 0.0626 -0.2734 0.9599
vn 0.0466 -0.2632 0.9636
vn 0.0320 -0.2617 0.9646
vn 0.0162 -0.2530 0.9673
vn 0.0006 -0.2490 0.9685
vn -0.0153 -0.2438 0.9697
vn -0.0315 -0.2383 0.9707
vn -0.0487 -0.2364 0.9704
vn -0.0646 -0.2270 0.9718
vn -0.0808 -0.2191 0.9724
vn -0.0946 -0.2045 0.9743
vn -0.7128 0.3578 0.6033
vn -0.7381 -0.0053 0.6746
vn 0.5720 -0.7605 0.3073
vn -0.6509 -0.6972 0.3006
vn 0.7788 -0.4022 0.4814
vn -0.0799 0.2441 0.9664
vn -0.2906 0.8183 0.4960
vn -0.8547 -0.2781 0.4382
vn -0.8347 -0.2884 0.4692
vn 0.0626 -0.2733 0.9599
vn -0.0607 0.2626 0.9630
vn -0.0756 0.2707 0.9597
vn 0.0762 -0.2737 0.9588
vn -0.0468 0.2640 0.9634
vn -0.0317 0.2565 0.9660
vn -0.0009 0.2500 0.9682
vn -0.0186 0.2556 0.9666
vn 0.0316 0.2394 0.9704
vn 0.0156 0.2448 0.9695
vn 0.8528 -0.1338 0.5049
vn 0.1027 0.2265 0.9686
vt 0.130091 0.917282
vt 0.101152 0.917282
vt 0.101152 0.809734
vt 0.130091 0.809734
vt 0.130063 0.999342
vt 0.098973 0.999342
vt 0.098973 0.921798
vt 0.130090 0.921829
vt 0.160089 0.917282
vt 0.160089 0.809734
vt 0.160062 0.999342
vt 0.160088 0.921828
vt 0.189832 0.917282
vt 0.189832 0.809734
vt 0.189808 0.999342
vt 0.189831 0.921828
vt 0.219333 0.917282
vt 0.219333 0.809734
vt 0.219312 0.999342
vt 0.219332 0.921828
vt 0.248614 0.917282
vt 0.248614 0.809734
vt 0.248599 0.999342
vt 0.248613 0.921828
vt 0.277707 0.917282
vt 0.277707 0.809734
vt 0.277699 0.999342
vt 0.277707 0.921828
vt 0.306654 0.917282
vt 0.306654 0.809734
vt 0.306654 0.999342
vt 0.306654 0.921828
vt 0.335502 0.917282
vt 0.335502 0.809734
vt 0.335510 0.999342
vt 0.335502 0.921828
vt 0.364299 0.917282
vt 0.364299 0.809734
vt 0.364315 0.999342
vt 0.364299 0.921828
vt 0.393091 0.917282
vt 0.393091 0.809734
vt 0.393113 0.999342
vt 0.393092 0.921828
vt 0.421917 0.917282
vt 0.421917 0.809734
vt 0.421944 0.999342
vt 0.421918 0.921828
vt 0.450808 0.917282
vt 0.450808 0.809734
vt 0.450838 0.999342
vt 0.450809 0.921828
vt 0.479781 0.917282
vt 0.479781 0.809734
vt 0.479813 0.999342
vt 0.479783 0.921828
vt 0.507678 0.917282
vt 0.507678 0.809734
vt 0.509761 0.999342
vt 0.509761 0.921830
vt 0.052449 0.905377
vt 0.001134 0.905375
vt 0.001134 0.813466
vt 0.052449 0.813466
vt 0.052449 0.907857
vt 0.052449 0.998300
vt 0.000396 0.997952
vt 0.000601 0.907876
vt 0.103006 0.905377
vt 0.103006 0.813466
vt 0.103006 0.907857
vt 0.103006 0.998300
vt 0.151333 0.905377
vt 0.151333 0.813466
vt 0.151333 0.907857
vt 0.151333 0.998300
vt 0.197610 0.905377
vt 0.197610 0.813466
vt 0.197610 0.907857
vt 0.197610 0.998300
vt 0.242039 0.905377
vt 0.242039 0.813466
vt 0.242039 0.907857
vt 0.242039 0.998300
vt 0.284849 0.905377
vt 0.284849 0.813466
vt 0.284849 0.907857
vt 0.284849 0.998300
vt 0.326296 0.905377
vt 0.326296 0.813466
vt 0.326296 0.907857
vt 0.326296 0.998300
vt 0.366662 0.905377
vt 0.366662 0.813466
vt 0.366662 0.907857
vt 0.366662 0.998300
vt 0.406252 0.905377
vt 0.406252 0.813466
vt 0.406252 0.907857
vt 0.406252 0.998300
vt 0.445391 0.905377
vt 0.445391 0.813466
vt 0.445391 0.907857
vt 0.445391 0.998300
vt 0.484413 0.905377
vt 0.484413 0.813466
vt 0.484413 0.907857
vt 0.484413 0.998300
vt 0.523656 0.905377
vt 0.523656 0.813466
vt 0.523656 0.907857
vt 0.523656 0.998300
vt 0.566999 0.905377
vt 0.566999 0.813466
vt 0.566999 0.907857
vt 0.566999 0.998300
vt 0.613276 0.907843
vt 0.613299 0.998523
vt 0.612667 0.813466
vt 0.612667 0.905377
vt 0.562250 1.052427
vt 0.562364 1.047990
vt 0.757100 1.047988
vt 0.757106 1.052427
vt 0.000297 0.907049
vt 1.040811 1.465487
vt 1.040811 1.463064
vt 1.219741 1.463064
vt 1.219749 1.465487
vt 0.613618 0.907022
vt 1.686490 1.465774
vt 1.686502 1.463065
vt 1.865432 1.463065
vt 1.865432 1.465774
vt 0.000036 0.998816
vt 0.052449 0.998907
vt 0.000106 0.907876
vt 0.103006 0.998907
vt 0.151333 0.998907
vt 0.197610 0.998907
vt 0.242039 0.998907
vt 0.284849 0.998907
vt 0.326296 0.998907
vt 0.366662 0.998907
vt 0.406252 0.998907
vt 0.445391 0.998907
vt 0.484413 0.998907
vt 0.523656 0.998907
vt 0.566999 0.998907
vt 0.613838 0.907843
vt 0.613857 0.998986
vt 0.000042 0.907559
vt 0.613910 0.907528
vt 0.614434 0.907674
vt 0.222415 0.788015
vt 0.222382 0.788346
vt 0.185543 0.775520
vt 0.185736 0.775251
vt 0.185365 0.775358
vt 0.202548 0.724166
vt 0.202817 0.724376
vt 0.294674 0.808148
vt 0.294656 0.808478
vt 0.258882 0.799384
vt 0.258940 0.799062
vt 0.329625 0.815262
vt 0.329583 0.815587
vt 0.363795 0.820390
vt 0.363794 0.820718
vt 0.429793 0.824616
vt 0.429813 0.824942
vt 0.397162 0.823840
vt 0.397186 0.823514
vt 0.492616 0.820675
vt 0.492654 0.820999
vt 0.461608 0.824003
vt 0.461608 0.823676
vt 0.614134 0.999767
vt 0.566914 0.999378
vt 0.613949 0.919249
vt 0.614419 0.919103
s 1
f 25/1/1 8/2/2 7/3/3
f 7/3/3 26/4/4 25/1/1
f 27/5/5 28/6/6 29/7/7
f 29/7/7 30/8/8 27/5/5
f 31/9/9 25/1/1 26/4/4
f 26/4/4 32/10/10 31/9/9
f 33/11/11 27/5/5 30/8/8
f 30/8/8 34/12/12 33/11/11
f 35/13/13 31/9/9 32/10/10
f 32/10/10 36/14/14 35/13/13
f 37/15/15 33/11/11 34/12/12
f 34/12/12 38/16/16 37/15/15
f 39/17/17 35/13/13 36/14/14
f 36/14/14 40/18/18 39/17/17
f 41/19/19 37/15/15 38/16/16
f 38/16/16 42/20/16 41/19/19
f 43/21/20 39/17/17 40/18/18
f 40/18/18 44/22/21 43/21/20
f 45/23/22 41/19/19 42/20/16
f 42/20/16 46/24/23 45/23/22
f 47/25/24 43/21/20 44/22/21
f 44/22/21 48/26/25 47/25/24
f 49/27/26 45/23/22 46/24/23
f 46/24/23 50/28/23 49/27/26
f 51/29/27 47/25/24 48/26/25
f 48/26/25 52/30/28 51/29/27
f 53/31/29 49/27/26 50/28/23
f 50/28/23 54/32/30 53/31/29
f 55/33/31 51/29/27 52/30/28
f 52/30/28 56/34/32 55/33/31
f 57/35/33 53/31/29 54/32/30
f 54/32/30 58/36/30 57/35/33
f 59/37/34 55/33/31 56/34/32
f 56/34/32 60/38/35 59/37/34
f 61/39/36 57/35/33 58/36/30
f 58/36/30 62/40/37 61/39/36
f 63/41/38 59/37/34 60/38/35
f 60/38/35 64/42/39 63/41/38
f 65/43/40 61/39/36 62/40/37
f 62/40/37 66/44/37 65/43/40
f 67/45/41 63/41/38 64/42/39
f 64/42/39 68/46/42 67/45/41
f 69/47/43 65/43/40 66/44/37
f 66/44/37 70/48/44 69/47/43
f 71/49/45 67/45/41 68/46/42
f 68/46/42 72/50/46 71/49/45
f 73/51/47 69/47/43 70/48/44
f 70/48/44 74/52/44 73/51/47
f 75/53/48 71/49/45 72/50/46
f 72/50/46 76/54/49 75/53/48
f 77/55/50 73/51/47 74/52/44
f 74/52/44 78/56/51 77/55/50
f 79/57/52 75/53/48 76/54/49
f 76/54/49 80/58/53 79/57/52
f 81/59/54 77/55/50 78/56/51
f 78/56/51 82/60/55 81/59/54
f 83/61/56 84/62/57 85/63/58
f 85/63/58 86/64/59 83/61/56
f 87/65/60 88/66/61 89/67/62
f 89/67/62 90/68/63 87/65/60
f 91/69/64 83/61/56 86/64/59
f 86/64/59 92/70/65 91/69/64
f 93/71/66 94/72/61 88/66/61
f 88/66/61 87/65/60 93/71/66
f 95/73/67 91/69/64 92/70/65
f 92/70/65 96/74/68 95/73/67
f 97/75/69 98/76/70 94/72/61
f 94/72/61 93/71/66 97/75/69
f 99/77/71 95/73/67 96/74/68
f 96/74/68 100/78/72 99/77/71
f 101/79/73 102/80/74 98/76/70
f 98/76/70 97/75/69 101/79/73
f 103/81/75 99/77/71 100/78/72
f 100/78/72 104/82/76 103/81/75
f 105/83/77 106/84/78 102/80/74
f 102/80/74 101/79/73 105/83/77
f 107/85/79 103/81/75 104/82/76
f 104/82/76 108/86/80 107/85/79
f 109/87/81 110/88/82 106/84/78
f 106/84/78 105/83/77 109/87/81
f 111/89/83 107/85/79 108/86/80
f 108/86/80 112/90/84 111/89/83
f 113/91/85 114/92/86 110/88/82
f 110/88/82 109/87/81 113/91/85
f 115/93/87 111/89/83 112/90/84
f 112/90/84 116/94/88 115/93/87
f 117/95/89 118/96/90 114/92/86
f 114/92/86 113/91/85 117/95/89
f 119/97/91 115/93/87 116/94/88
f 116/94/88 120/98/92 119/97/91
f 121/99/93 122/100/94 118/96/90
f 118/96/90 117/95/89 121/99/93
f 123/101/95 119/97/91 120/98/92
f 120/98/92 124/102/96 123/101/95
f 125/103/97 126/104/98 122/100/94
f 122/100/94 121/99/93 125/103/97
f 127/105/99 123/101/95 124/102/96
f 124/102/96 128/106/100 127/105/99
f 129/107/97 130/108/101 126/104/98
f 126/104/98 125/103/97 129/107/97
f 131/109/102 127/105/99 128/106/100
f 128/106/100 132/110/103 131/109/102
f 133/111/104 134/112/105 130/108/101
f 130/108/101 129/107/97 133/111/104
f 135/113/106 131/109/102 132/110/103
f 132/110/103 136/114/107 135/113/106
f 137/115/108 138/116/109 134/112/105
f 134/112/105 133/111/104 137/115/108
f 137/115/108 139/117/110 140/118/111
f 140/118/111 138/116/109 137/115/108
f 136/114/107 141/119/112 142/120/113
f 142/120/113 135/113/106 136/114/107
f 25/1/1 30/8/8 29/7/7
f 29/7/7 8/2/2 25/1/1
f 31/9/9 34/12/12 30/8/8
f 30/8/8 25/1/1 31/9/9
f 35/13/13 38/16/16 34/12/12
f 34/12/12 31/9/9 35/13/13
f 39/17/17 42/20/16 38/16/16
f 38/16/16 35/13/13 39/17/17
f 43/21/20 46/24/23 42/20/16
f 42/20/16 39/17/17 43/21/20
f 47/25/24 50/28/23 46/24/23
f 46/24/23 43/21/20 47/25/24
f 51/29/27 54/32/30 50/28/23
f 50/28/23 47/25/24 51/29/27
f 55/33/31 58/36/30 54/32/30
f 54/32/30 51/29/27 55/33/31
f 59/37/34 62/40/37 58/36/30
f 58/36/30 55/33/31 59/37/34
f 63/41/38 66/44/37 62/40/37
f 62/40/37 59/37/34 63/41/38
f 67/45/41 70/48/44 66/44/37
f 66/44/37 63/41/38 67/45/41
f 71/49/45 74/52/44 70/48/44
f 70/48/44 67/45/41 71/49/45
f 75/53/48 78/56/51 74/52/44
f 74/52/44 71/49/45 75/53/48
f 143/121/53 4/122/114 3/123/115
f 3/123/115 144/124/52 143/121/53
f 79/57/52 82/60/55 78/56/51
f 78/56/51 75/53/48 79/57/52
f 87/65/60 90/68/63 145/125/116
f 87/65/60 145/125/116 84/62/57
f 83/61/56 87/65/60 84/62/57
f 146/126/57 6/127/117 5/128/118
f 5/128/118 147/129/119 146/126/57
f 91/69/64 93/71/66 87/65/60
f 87/65/60 83/61/56 91/69/64
f 95/73/67 97/75/69 93/71/66
f 93/71/66 91/69/64 95/73/67
f 99/77/71 101/79/73 97/75/69
f 97/75/69 95/73/67 99/77/71
f 103/81/75 105/83/77 101/79/73
f 101/79/73 99/77/71 103/81/75
f 107/85/79 109/87/81 105/83/77
f 105/83/77 103/81/75 107/85/79
f 111/89/83 113/91/85 109/87/81
f 109/87/81 107/85/79 111/89/83
f 115/93/87 117/95/89 113/91/85
f 113/91/85 111/89/83 115/93/87
f 119/97/91 121/99/93 117/95/89
f 117/95/89 115/93/87 119/97/91
f 123/101/95 125/103/97 121/99/93
f 121/99/93 119/97/91 123/101/95
f 127/105/99 129/107/97 125/103/97
f 125/103/97 123/101/95 127/105/99
f 131/109/102 133/111/104 129/107/97
f 129/107/97 127/105/99 131/109/102
f 135/113/106 137/115/108 133/111/104
f 133/111/104 131/109/102 135/113/106
f 148/130/120 139/117/110 137/115/108
f 142/120/113 148/130/120 137/115/108
f 142/120/113 137/115/108 135/113/106
f 149/131/121 2/132/122 1/133/123
f 1/133/123 150/134/113 149/131/121
f 151/135/124 89/67/62 88/66/61
f 88/66/61 23/136/125 151/135/124
f 152/137/126 90/68/63 89/67/62
f 89/67/62 151/135/124 152/137/126
f 23/136/125 88/66/61 94/72/61
f 94/72/61 24/138/127 23/136/125
f 24/138/127 94/72/61 98/76/70
f 98/76/70 153/139/128 24/138/127
f 153/139/128 98/76/70 102/80/74
f 102/80/74 154/140/129 153/139/128
f 154/140/129 102/80/74 106/84/78
f 106/84/78 21/141/130 154/140/129
f 21/141/130 106/84/78 110/88/82
f 110/88/82 22/142/131 21/141/130
f 22/142/131 110/88/82 114/92/86
f 114/92/86 14/143/132 22/142/131
f 14/143/132 114/92/86 118/96/90
f 118/96/90 15/144/133 14/143/132
f 15/144/133 118/96/90 122/100/94
f 122/100/94 16/145/134 15/144/133
f 16/145/134 122/100/94 126/104/98
f 126/104/98 17/146/135 16/145/134
f 17/146/135 126/104/98 130/108/101
f 130/108/101 18/147/136 17/146/135
f 18/147/136 130/108/101 134/112/105
f 134/112/105 19/148/137 18/147/136
f 19/148/137 134/112/105 138/116/109
f 138/116/109 20/149/138 19/148/137
f 140/118/111 139/117/110 155/150/139
f 155/150/139 156/151/140 140/118/111
f 140/118/111 156/151/140 20/149/138
f 20/149/138 138/116/109 140/118/111
f 90/68/63 152/137/126 157/152/141
f 157/152/141 145/125/116 90/68/63
f 148/130/120 158/153/142 155/150/139
f 155/150/139 139/117/110 148/130/120
f 155/150/139 158/153/142 159/154/143
f 160/155/125 161/156/144 9/157/145
f 9/157/145 11/158/124 160/155/125
f 11/158/124 10/159/146 12/160/147
f 12/160/147 13/161/126 11/158/124
f 162/162/148 163/163/149 164/164/150
f 164/164/150 165/165/151 162/162/148
f 166/166/129 167/167/152 163/163/149
f 163/163/149 162/162/148 166/166/129
f 168/168/130 169/169/153 167/167/152
f 167/167/152 166/166/129 168/168/130
f 170/170/132 171/171/154 172/172/155
f 172/172/155 173/173/131 170/170/132
f 174/174/134 175/175/156 176/176/157
f 176/176/157 177/177/133 174/174/134
f 156/151/140 178/178/158 179/179/159
f 179/179/159 20/149/138 156/151/140
f 180/180/139 181/181/143 178/178/158
f 178/178/158 156/151/140 180/180/139
