# Blender 3.6.0
# www.blender.org
o ornament_door_2ndfloor_07.004
v -0.135879 -8.695989 11.204790
v -0.203621 -8.695989 11.204790
v -0.458775 -8.590301 11.204790
v -0.667714 -8.381361 11.204790
v -0.773402 -8.126207 11.204790
v -0.135878 -7.964731 11.204790
v -0.773402 -7.964731 11.204790
v 0.501645 -7.964731 11.204790
v 0.501645 -8.126207 11.204790
v 0.395957 -8.381361 11.204790
v 0.187017 -8.590301 11.204790
v -0.068137 -8.695989 11.204790
vn -0.0000 -0.0000 -1.0000
vt 0.500000 0.573441
vt 0.446924 0.573441
vt 0.247011 0.490634
vt 0.083307 0.326930
vt 0.000500 0.127017
vt 0.500000 0.000500
vt 0.000500 0.000500
vt 0.999500 0.000500
vt 0.999500 0.127017
vt 0.916694 0.326929
vt 0.752989 0.490634
vt 0.553076 0.573441
s 0
f 1/1/1 2/2/1 3/3/1
f 3/3/1 4/4/1 5/5/1
f 1/1/1 3/3/1 5/5/1
f 6/6/1 1/1/1 5/5/1
f 7/7/1 6/6/1 5/5/1
f 8/8/1 9/9/1 10/10/1
f 10/10/1 11/11/1 12/12/1
f 8/8/1 10/10/1 12/12/1
f 8/8/1 12/12/1 1/1/1
f 6/6/1 8/8/1 1/1/1
