# Blender 3.6.0
# www.blender.org
o lamp_1stfloor_entrance
v 0.721675 -3.322020 -15.625750
v 0.899099 -3.322020 -15.414303
v 0.903506 -3.017173 -15.464671
v 0.772042 -3.017173 -15.621344
v 0.722081 -3.322020 -15.630421
v 0.772449 -3.017173 -15.626014
v 0.929122 -3.017173 -15.757478
v 0.933528 -3.322020 -15.807845
v 0.903768 -3.322020 -15.413895
v 1.115214 -3.322020 -15.591319
v 1.064847 -3.017173 -15.595726
v 0.908174 -3.017173 -15.464262
v 0.938200 -3.322020 -15.807436
v 0.933793 -3.017173 -15.757069
v 1.065257 -3.017173 -15.600396
v 1.115625 -3.322020 -15.595990
vn -0.7608 0.1165 0.6384
vn -0.7608 0.1162 0.6385
vn -0.6384 0.1165 -0.7608
vn -0.6384 0.1160 -0.7609
vn -0.6386 0.1162 -0.7607
vn 0.6384 0.1165 0.7608
vn 0.6384 0.1162 0.7609
vn 0.7608 0.1165 -0.6384
vt 0.000500 0.000500
vt 0.905045 0.000500
vt 0.787887 0.999500
vt 0.117658 0.999500
s 0
f 1/1/1 2/2/1 3/3/2
f 3/3/1 4/4/1 1/1/1
f 5/1/3 6/4/4 7/3/5
s 1
f 7/3/3 8/2/3 5/1/3
s 0
f 9/1/6 10/2/6 11/3/7
f 11/3/6 12/4/6 9/1/6
f 13/1/8 14/4/8 15/3/8
f 15/3/8 16/2/8 13/1/8
